/* XPM */
static char * EA2_xpm[] = {
"64 64 7 1",
" 	c #53381A",
".	c #4F3218",
"+	c #492F17",
"@	c #3E2912",
"#	c #3A2411",
"$	c #301E0E",
"%	c #291A0C",
"      ........              ..    ....                    ..++@#",
"......++..++++................++.++......+.....++..........++++#",
"+......++.....+++.+++....+++++....+++.+++...++..+++..........++@",
"++........+++++.....++++..++.++.....++++..++++++@+....+.++++..+#",
"....++@++...++.++++@++@@+@@@+.+++......+++@@++@@+.++.++++...++@#",
"..++.++@...+..++@@@##@@@@+++++......++++@@@+++++......+@@++++@@@",
"++.....+++++@@+...+@@++++.++..+++++.....+++++.....++++++@@@+++@@",
"@@++++@++@@@++..+++++.......++@@+++++++@@+++++......+++++++@@@+@",
"+++@@@++@@++..+++...++++...+++++@@@#@@@+++.....++++++@#@++....+#",
"@@@@++..+++.......++....++++@@@@@##@@+++++++....++@@##@+...++.+#",
".+++@@++.@@@+....++.++@@@@@@+++++..+++......+++++@+++++++++..+@#",
"...+++@@@#@+++++.....++++@@#@@@@+++.....+++++@@@+++@+....+..++@#",
"+++....+++@@@@+++++++...++...+++@@++++++@@@@@+++@@@...++@@++@@@#",
"@@@+++..++++++@@@@@@++++...+++@@@@@@++@@@@@+++@@@@++++++++@@@@##",
"##@@#@@@####@@@@@#@@@###$###$$#########$$##$#$$$$$$$$$$$####$#$$",
"$######$$#$$$$$$####$$$$%%%%%%%%%%%$$$$$%$%%$$%%%%%%%%%%$$$$%%%%",
"+.    ....                  .+@#          ..    ..++++@@@@++++++",
"++............................+#....................+++++@@@++++",
"......+...++++......+++....+.++@.++.++++.+..++...+++..++++.....+",
"...+++..++++@@+.++...+++++..+++@...++++...+@++++...++@++....+++.",
"+....+++....++@#@+++....@@+++++#++++@#@++@@+++..++@@@##@+++...++",
"+++++++....++..+@@@@+.+++@@@@++@@@+++@#@@@++.....++++@@+++++++..",
".+++@+++++++.++++..+++...++++@@#++@@@+++....++++....+++@@+......",
"..+@@@@++.............++..+++++#.+++@@++++....++++++++++++++..+.",
"....++@@@@#@++...++.++++++...++@....++@@+...+@@+++@@@..++@@+++.+",
"..++@@++++@@@+++..+++@@+....+++@..+....+.+++@@++@@@++++...+@@+++",
"+@@@++...++++...+++@@+++++....+@++...++++..+++@@+.......++++@@@@",
"@@++++++....++....++@@@++@@+.++#++++.....+++++++..++...++@@@#@++",
"++@@@@@++++..++++@@+++@@@@++++@#+@@++++++++++....++++@@@@+++...+",
"+++++@@@@@++@@@@+++@@@#@+++@@@##@@@@@@++@@+@++++++@@@++@@@+.+.++",
"#$$$$#####$$#@###@@@####$$#$$######$##$$$#$###$$$###$$####$$$###",
"$$%%%%%%$$$%$$$$$$##$$#$%%$$%%%%%%%%%%%%%%$$%%$$$$$$%%%%$%$$%%%$",
"..        ..  ..+++.....                      ..        ...+++@#",
"..................+++.........................+...........++..+#",
".........+++..++++.....+..++.++++...++....++++++..+++.++++...++@",
".+++++.+...+++++....++++++......++++.+++.++@@@++++++....++++++@@",
"......++++@@@#@++++..++++..+++.+++.....++..+@++...++++++@@@@@@@#",
".+++...++++++@##@@@@++@@++++..++++++++..+++...++....+@@@@@++++@#",
"..++++.....+++++..++++++@@@++++@@++...++++......++++++++++..+++#",
"+++.....+++.++...+++@@@@@+++++@@++..++....++++.++++++++....++.+@",
"@@+++++++..++@@@@@@@+..+++....+@@@++++@@+....+@@@@++@@@++....++@",
"++@@@+....++++@@@+...+++....++++++++@@@+....+++++@@@++++++++..+#",
"..+@@@++...+@@++@@+.....++++.+@@@@@@++.....+++..++++.....+.++++@",
".++++@@+++..++..++++++.+++@@@@@++++++...+++....+++++++..+....++#",
"++@@@+++..++...+++@@@@++++++++++++....++..+++++@@@@@+....+++++@#",
"@@@@+++++++@@+++@@+++++@@@@+++++@@++++++++@@@@@@@@++++++++++@@##",
"#$##$$$$##@##@@@@###@@##$###$$$#########@@#@###$$##$$#$$$$$$##$$",
"$$$$%%$$$$##$#########$$%$%%%%%%%%%%$$$$#####$$%%$$$%$%%%%%$$$%%",
"    ........        ..  ..+++@#$          ..    ........        ",
"....++++....................+++#...................+++..........",
"..+++@+@@@+.....++++++........+@..++++......+++++++......+++....",
".+@@@@@++..+++....+++++++.+++.+#++++...+++......++++....++......",
"@@+++++........++++@@@@#@++...+@@++++++++....+.....+++++...++...",
"+++++.+++.++++..+@@++++@@@+++++#@@++@@@@++.++++..++++@@@@++....+",
"..++.........++++++.....++@@@@@#++@@++....++++.....+++@#@@+++++.",
"......++++++@@.......++++++++++@+++.....++++@@++..+@@##@+++++...",
"..++++@@@+@@++++++.....++.....+@++....+++..++@@@@@@+++++........",
"+...+++@@##@@@@+++++........+++@+++++.....+++.++@@++..++++...+++",
"+++++@@@++++++....++++++++++..+@@@@++++.........+....+@@++++@@@@",
"@@@@@+++++.........++@@@+++++++#+@@@@@++++....++..+++++@@@@@++++",
"++++@@@@@@@+++++++....+@@@++++@#+++++++++++++++@++++@@@+++++++++",
"++++++++@@@@@@++++++++@@@+@@@@##@@+++++@@@++@@@@@@@@@@++++@@++++",
"$$$####$$##$$###$$$$####@@########@@#######$$$$#####$$##$####$$$",
"%%%%$$$$%$%%%$%%%%%%$$$$##$$########$$$$$$%%%%%$%%%%%%%%%%%%%%%%"};
