/* XPM */
static char * CubEast_xpm[] = {
"64 64 256 2",
"  	c #EEEED8",
". 	c #E8E5CE",
"+ 	c #DEE7CE",
"@ 	c #DDE5D6",
"# 	c #DCDECE",
"$ 	c #D8DEC6",
"% 	c #DED6C6",
"& 	c #D7D6CE",
"* 	c #D6D6C6",
"= 	c #D6D6BD",
"- 	c #CED6BD",
"; 	c #CED6B5",
"> 	c #D6CEC6",
", 	c #D6D0B5",
"' 	c #D6CEBD",
") 	c #CECFC7",
"! 	c #CECEBD",
"~ 	c #CECEB5",
"{ 	c #CECEAD",
"] 	c #C6CEBD",
"^ 	c #C6CEB5",
"/ 	c #D6C6AD",
"( 	c #C6CEAD",
"_ 	c #CEC6B5",
": 	c #CEC6AD",
"< 	c #C7C6BD",
"[ 	c #CEC6A5",
"} 	c #C6C6B5",
"| 	c #C6C6AD",
"1 	c #C6C6A5",
"2 	c #BDC6AD",
"3 	c #CEBDAD",
"4 	c #BDC6A5",
"5 	c #AEA69F",
"6 	c #C6BDB5",
"7 	c #C6BDAD",
"8 	c #BDC0B5",
"9 	c #C6BDA5",
"0 	c #BDBDAD",
"a 	c #BDBDA5",
"b 	c #BDBD9C",
"c 	c #B5BDAD",
"d 	c #C6B5A5",
"e 	c #B5BDA5",
"f 	c #BDB5A5",
"g 	c #BDB59C",
"h 	c #B5B5AD",
"i 	c #B5B5A5",
"j 	c #BAB594",
"k 	c #B5B59C",
"l 	c #BDAD9C",
"m 	c #ACB59C",
"n 	c #ADB594",
"o 	c #B5ADA5",
"p 	c #ACB1A5",
"q 	c #B5AD9C",
"r 	c #B5AD94",
"s 	c #9FA79A",
"t 	c #ADAD9C",
"u 	c #ADAD94",
"v 	c #A5AD9C",
"w 	c #B5A594",
"x 	c #A4AD94",
"y 	c #B0A88C",
"z 	c #B9B8AB",
"A 	c #ADA594",
"B 	c #A7A59C",
"C 	c #A5A594",
"D 	c #A5A58C",
"E 	c #A5A580",
"F 	c #9CA594",
"G 	c #9CA58C",
"H 	c #AD9C8C",
"I 	c #A59C94",
"J 	c #94A58C",
"K 	c #A59C8C",
"L 	c #94A584",
"M 	c #A59C84",
"N 	c #9C9C94",
"O 	c #9C9C8C",
"P 	c #9C9C84",
"Q 	c #9D9C7B",
"R 	c #949C8C",
"S 	c #949C84",
"T 	c #949C7B",
"U 	c #9C948C",
"V 	c #9C9484",
"W 	c #8C9C84",
"X 	c #949494",
"Y 	c #9E937B",
"Z 	c #94948C",
"` 	c #949484",
" .	c #94947B",
"..	c #8C9484",
"+.	c #8C947B",
"@.	c #948C84",
"#.	c #948C7B",
"$.	c #84947B",
"%.	c #8B8C84",
"&.	c #8C8C7B",
"*.	c #8E8C72",
"=.	c #848C7B",
"-.	c #848C73",
";.	c #8D8477",
">.	c #84847B",
",.	c #848473",
"'.	c #7B8473",
").	c #7B846B",
"!.	c #867E6B",
"~.	c #847B73",
"{.	c #7B7E7B",
"].	c #877C62",
"^.	c #7B7B73",
"/.	c #F24A32",
"(.	c #F34B29",
"_.	c #7B7B6B",
":.	c #DC5338",
"<.	c #7B7B63",
"[.	c #737B6B",
"}.	c #E74A33",
"|.	c #737B63",
"1.	c #737873",
"2.	c #7B736B",
"3.	c #F14228",
"4.	c #ED4231",
"5.	c #7C7260",
"6.	c #73736B",
"7.	c #E74429",
"8.	c #D54A34",
"9.	c #737363",
"0.	c #73735A",
"a.	c #E74221",
"b.	c #6B736B",
"c.	c #6B7363",
"d.	c #DA4328",
"e.	c #D74232",
"f.	c #EB3929",
"g.	c #736B63",
"h.	c #736B5A",
"i.	c #6B6B6B",
"j.	c #6B6B63",
"k.	c #E93720",
"l.	c #6B6B5A",
"m.	c #DE3929",
"n.	c #73684D",
"o.	c #636B63",
"p.	c #DE3821",
"q.	c #636B5A",
"r.	c #D63929",
"s.	c #B74636",
"t.	c #6B635B",
"u.	c #D63721",
"v.	c #DE3318",
"w.	c #CB3929",
"x.	c #63635A",
"y.	c #63634A",
"z.	c #606352",
"A.	c #D63117",
"B.	c #CC3421",
"C.	c #5A635A",
"D.	c #CB3118",
"E.	c #635A52",
"F.	c #B23925",
"G.	c #635A4A",
"H.	c #5A5A52",
"I.	c #7D4D32",
"J.	c #5A5A4A",
"K.	c #CA2918",
"L.	c #CB2910",
"M.	c #BA2E1D",
"N.	c #5A525A",
"O.	c #5B524A",
"P.	c #CB2118",
"Q.	c #5C523E",
"R.	c #5A4F52",
"S.	c #C92110",
"T.	c #50514B",
"U.	c #A72D1E",
"V.	c #C62108",
"W.	c #4A5242",
"X.	c #524D40",
"Y.	c #B82112",
"Z.	c #5E4622",
"`.	c #4A4A42",
" +	c #494B39",
".+	c #942A1A",
"++	c #424A42",
"@+	c #4B4041",
"#+	c #B0AFA1",
"$+	c #424242",
"%+	c #9C1D11",
"&+	c #A5190A",
"*+	c #474131",
"=+	c #424239",
"-+	c #772B1F",
";+	c #921E13",
">+	c #394239",
",+	c #9C1808",
"'+	c #394231",
")+	c #403942",
"!+	c #782118",
"~+	c #3E3739",
"{+	c #9C1008",
"]+	c #941408",
"^+	c #413726",
"/+	c #393931",
"(+	c #841808",
"_+	c #313931",
":+	c #313929",
"<+	c #751A10",
"[+	c #622118",
"}+	c #393131",
"|+	c #443111",
"1+	c #691D10",
"2+	c #751808",
"3+	c #841008",
"4+	c #313131",
"5+	c #313129",
"6+	c #7B1008",
"7+	c #293121",
"8+	c #731008",
"9+	c #5A1B10",
"0+	c #312B21",
"a+	c #611707",
"b+	c #2D2929",
"c+	c #521A10",
"d+	c #461E18",
"e+	c #312914",
"f+	c #292921",
"g+	c #212921",
"h+	c #461910",
"i+	c #2B1F1F",
"j+	c #391A10",
"k+	c #2D210A",
"l+	c #521000",
"m+	c #401806",
"n+	c #212121",
"o+	c #212118",
"p+	c #311810",
"q+	c #291810",
"r+	c #211818",
"s+	c #1E1810",
"t+	c #2D1205",
"u+	c #1F1807",
"v+	c #181818",
"w+	c #291010",
"x+	c #1A1010",
"y+	c #180F08",
"z+	c #101010",
"A+	c #1A0D00",
"B+	c #101008",
"C+	c #100808",
"D+	c #0E0900",
"E+	c #080808",
"F+	c #080000",
"G+	c #000000",
"O S S O C C t t C I C t B C O  . .` ` ` P O N N F F O P P V ` O N I C t v G ` &.` ` ` ` V O O O F C O P P P P O O S O C u t x G ",
"O Z Z R F F v B C I C C N O O S ` Z R R R O N N N N N O O O O O N I C C C O O ` Z Z R R O O N O N I N O O O O O R R O N C C I O ",
"l.l.j.c.c.6.6.9.9.6.6._._.9.c.l.j.j.9.6.9.g.j.j.c.6.6.[.[.6.9.c.c.6.6._._.9.c.l.j.c.6.6.g.g.j.l.j.6.6.[.[.6.9.c.c.c.9.9.^._.<.9.",
" . .` ` ..Z ` ` ` Z R O O R `  .` O ` ` %.%.....+.` ` ` ` ` ` ` ` R O O O S `  .` O ` ` &.` ` &.&.` ` ....` ` ` ` ` ` R R R O O ",
"` O O O R R S ` ` ..O O O F G ` O F G P O O O O ` ` O O G O O ` ` ..O O N F O ` O K O O O O N O ` S P O G O O O O O ` R P O F G ",
"S ` P P V +. . .&.-.-.+.V V S ` P P ` %.V O F C P  ...R O N R ` +.-.=.` V V ` ` S S ` &.` O F F O +.+.S O N O ` ` ` ` &.&.` V V ",
"` O O O O Z %.%...` ....` S ..R O O P V O I C C D S R O K N R O Z ` ..` ` ` ..R O O V V U I C C G S S O K N R O O O O R ` ` ` ` ",
"} < 8 0 0 } 8 8 8 0 h h z 0 } } } 0 0 ~ } < ! ! - - - - - - ! ! } 8 h h z 0 } } } 0 | ~ } ! ! ! - - - ' ' ! ! ! } } } 8 z h z } ",
"_.^.^._._._._.^.^.^.6.6._._._._._._._.,.,.&.&.=.&.>.,.&.&.,.,.,.,.^.6.6.[._._._._._.^.,.,.&.&.&.&.;.,.&.&.,.,.,.,._._._.6.6._._.",
"j.6.6.g.g.j.j.j.j.j.l.j.g.g.g.g.g.9.9.9.9.g.9.9.9.6.6.g.g.g.g.j.c.9.6.j.g.g.g.g.g.j.j.j.j.g.9.9.9.9.6.6.6.6.9.6.6.6.g.j.l.l.j.l.",
"k t t q q t t t t u D C A u t q q t t u t t t t q t t t t t t u t t k t t t q t t t t t t t t t q k k #+t k q q #+t q t u D K A ",
"~ ~ _ _ 7 9 7 | _ 7 9 7 | | | | } | | | | | } } _ | | | | } } } } _ ~ _ } } _ | } } | | | } } _ _ _ ~ ~ ~ _ | _ _ _ } } 7 f a | ",
"~ ~ ~ ~ } 7 _ ~ ~ _ | _ _ } _ _ } } | _ | | | | _ | | | | : _ } } ~ ~ _ _ _ ~ } _ ~ ~ | _ _ _ _ _ 7 ~ ~ ~ ~ } _ _ _ ~ _ | 7 7 _ ",
"~ _ _ _ | | ~ ~ ~ | a | _ } } } _ _ | | } | | | _ _ | | } _ _ | } _ _ ~ _ _ ~ _ _ _ _ | | } ~ _ 7 a | ~ ~ ~ _ _ _ _ ~ | | | | ~ ",
"~ _ _ _ | | _ ~ ~ 7 | _ _ _ | ~ _ _ | _ } | : _ } } | | } } | | } _ | ~ _ _ ~ ~ } _ _ _ ~ ~ ~ _ | 7 | ~ ~ } _ _ _ _ ~ ~ } | | _ ",
"~ ~ ~ ~ ~ | ~ ~ ~ | ~ ~ ~ _ | | : _ _ } } ~ ~ ~ } | | | } | _ } } } | _ ~ ~ _ _ ~ _ _ } ~ ~ ~ _ | } _ _ _ | 7 _ ~ ~ ~ _ | | 7 | ",
"~ ~ ~ ~ ~ _ ~ ~ _ } ~ ~ ~ ~ | _ _ _ _ _ _ | ~ ~ } 7 7 | | } _ _ } | | } } _ _ } | _ _ _ _ ~ _ _ | ~ _ _ _ _ 0 | ~ ~ ~ _ } } | | ",
"~ ~ ~ ~ ~ _ ~ ~ _ } ~ _ ~ ~ ~ _ _ _ ~ ~ _ | ~ ~ | a | } _ } } _ _ 7 | | } _ _ _ 7 _ _ _ _ _ _ | 7 ~ ~ ~ ~ ~ | | | | _ _ | _ _ | ",
"7 _ _ _ _ } _ ~ ~ } _ _ } | _ _ _ _ _ _ ~ ~ ~ ~ | a | _ ~ _ } } } | | | _ _ _ ~ } } } } _ ~ ~ } 7 _ _ _ _ ~ ~ _ _ | ~ _ ~ ~ ~ | ",
"| ~ ~ } ~ ~ ~ ~ ~ ~ ~ _ } | ~ _ | | 7 _ | ~ ~ ~ } | ~ ~ _ _ ~ _ } 0 | | ~ ~ ~ ~ ~ ~ ~ ~ ~ ~ ~ | a } _ _ _ ~ ~ ~ ~ _ _ | | _ | a ",
"} ~ ~ _ _ | | _ _ ~ _ _ | | ~ } | | | | | ~ ~ ~ _ | } } } ~ ~ ~ } 0 } _ ~ ~ ~ ~ ~ | | } _ ~ ~ 0 f 0 ~ ~ ~ ~ ~ ~ ~ ~ ~ | a a a | ",
"_ ~ ~ | } | } ~ ~ ~ _ _ } | ~ _ 7 7 7 7 7 _ ~ ~ ~ _ } } _ ! ~ ~ ~ | ~ _ ~ ~ ~ ~ ~ | a 7 | } } } } } ~ ~ ~ } } ~ ~ ~ ~ _ 9 b a | ",
"_ _ _ | 9 : | ~ ~ ~ ~ _ } } _ | | | 7 7 _ ~ ~ ~ ~ ~ _ _ _ = = ! ! } _ _ ~ ~ ~ ~ | a a | _ _ _ } } } ~ ~ ~ _ | _ _ } | _ 9 g a 7 ",
"| | | 9 | : ~ ~ ~ ~ _ _ _ | } 0 7 7 | | ~ ~ ~ ~ ~ ! ~ : _ ! = ! ! } | | ~ ~ _ _ | a | ~ ~ ~ _ _ _ _ ~ ~ ~ | 9 : _ } 7 | a b 7 _ ",
"} _ : : ~ ~ ~ ~ ~ ~ ~ ~ ~ | | a 0 7 7 | _ ~ ~ ~ ~ ' ~ ~ ~ ~ ~ ~ _ _ | | _ _ _ ~ } 0 0 } } ~ ~ _ ~ _ ~ ~ | 9 | | | | | | 9 9 a a ",
"k 7 ~ { : _ ~ ~ _ ~ } ~ ~ _ 7 f a } } | ~ ~ ~ ~ ~ ~ | | | _ g u u f 7 | | | | _ } } } _ | ~ ~ _ ~ ~ _ | a g 9 b 9 7 | _ | | a r ",
"g 7 } } | ~ ~ ~ } } | } } } 7 f 7 } ~ ~ ~ ~ ~ ~ _ _ 7 a 7 a ].Q.G.*.7 _ _ _ } _ _ _ _ | 9 ~ ~ _ ~ } } 7 a a a 9 7 7 _ _ _ 7 f q ",
"7 | | _ _ _ ~ } } | | | | _ } a | } } _ ~ ~ ~ ~ ~ } 0 a | 0 h.e+0+0.7 } _ _ _ _ } _ | a a | _ _ _ } | a a 0 | | 7 7 _ } | 0 f k ",
"w q l l l l l l q r r r l l l l g g g g g g g g g g g q q A G.A+k+Q.#.q f g g l l l l r r q l l l l q w w q l l l g g g l q A K ",
"I.I.I.I.I.I.I.I.I.I..+I.I.I.I.F.I.F.F.F.I.F.s.F.I.I.I.I..+.+!+9+|+|+Q.I.I.F.I.I.I.F.F.I..+I.I.I.F.I.F.U..+F.I.I.I.I.I.F.I.F.U..+",
"K.D.D.D.B.B.B.B.B.B.B.B.B.F.w.u.u.u.u.u.u.u.u.u.u.u.u.u.u.B.M..+^+*+n.I.F.B.B.B.w.w.B.w.u.B.w.w.B.u.u.u.u.u.u.w.w.w.w.u.u.B.B.B.",
"u.u.p.p.p.p.p.a.a.f.m.m.d.e.7.}.}.4.4.4.4.}.}.:.4.7.7.7.}.7.e.s.Z.X.5.I.s.7.d.8.8.8.e.d.7.e.8.8.}.}.}.}.7.7.d.w.s.8.}.}.}.e.e.e.",
"K.K.K.K.K.D.K.D.D.D.D.M.F.M.B.B.u.u.u.u.u.u.w.w.w.B.F.F.w.B.U.[+p+0+X.-+U.F.B.F.F.F.F.D.B.F.F.F.F.F.F.F.F.F.M.F.F.M.w.w.u.B.B.w.",
"<+<+<+<+<+<+<+<+<+<+<+!+1+1+!+!+!+!+!+!+!+!+!+!+!+!+!+!+!+[+9+p+y+s+e+d+9+[+1+[+1+1+[+1+1+[+[+[+[+!+!+1+[+[+1+9+9+[+!+!+!+!+<+<+",
"j+p+p+p+j+p+p+p+p+p+p+p+p+p+p+p+p+p+p+p+p+p+p+p+p+p+p+p+p+p+w+y+y+u+s+q+q+p+p+p+p+p+p+p+p+p+p+p+q+p+p+p+p+w+q+q+s+q+q+p+p+p+p+p+",
"r+r+v+r+r+r+v+r+o+v+v+r+r+r+r+v+r+o+r+r+r+r+r+v+r+r+r+v+v+v+x+y+y+s+v+v+v+v+v+v+v+v+v+v+v+v+v+v+v+v+v+v+v+v+v+v+v+v+v+v+v+v+v+v+",
"T.T.T.J.H.J.O.H.H.J.J.J.J.J.J.J.H.H.H.J.T.H.H.T.T.H.H.T.T.T./+5+0+~+T.T.T.T.T.O.O.T.T.T.J.J.J.J.J.J.T.T.T.T.T.T.T.T.J.J.O.T.T.T.",
"C C C A A A A A C C u t t t t t t t A D D C C C C C C C B B O @.#.` C C D D C A A D D C t t t t t u C O O C A K K C t t A C N O ",
"} | | 7 a | 7 7 7 7 | | _ _ _ _ _ _ 7 a a a a g a | | | } ~ ~ } 0 | | 7 f f f 7 7 7 7 | _ _ _ ~ ~ } 7 7 | | | | | } _ _ | | 0 0 ",
"_ } } 7 a _ _ _ _ | | | _ _ _ ~ _ | a a a a 0 7 | | | | ~ ~ _ | a a | | 0 a 7 7 a | | } } ~ ~ ~ ~ _ } } | a | _ _ } _ ~ } } } } ",
"~ } } | | } } ~ _ } | | } } } _ _ | 0 | | | | | | | | | ~ ~ ~ | a a | | | | | | | | | | | } ~ ~ ~ ~ ~ ~ ~ ~ ~ ~ } } _ ~ ~ } } } ",
"D C O O O O O O O O D K K C K K O O O O O O O O O O O O C C O O O O O O O O O O I I N O G C C C C C C C C C C C C C C C D O O O ",
"x.x.x.x.x.z.z.z.x.x.x.x.x.x.x.x.x.z.z.z.z.z.x.x.x.x.x.x.x.x.x.H.H.H.x.x.x.x.x.x.x.x.x.x.x.x.x.x.x.x.x.x.x.x.x.x.x.x.x.x.x.x.x.x.",
"t t t t B u u u t t t t t t t t t u u u A A t t k #+#+t t q #+O &.O t t t B t #+#+#+t t t t q t t t u C C A t t t q q q q t t t ",
"_ _ 7 9 0 | | | } } } | | _ ~ _ } | | | 7 7 | _ ~ ! 0 #+f _ ~ i t a < ! 0 #+k ~ ! ~ | | } _ _ _ } | | | | | | _ _ _ ~ _ _ | | _ ",
"~ } } | 0 7 | } } } _ 7 7 _ ~ _ _ _ | _ | | : _ ~ } C  .k ~ ! i t 0 ! ~ m  .O } ~ ~ ~ | | _ ~ ~ ~ ~ ~ ~ ~ ~ _ _ _ _ | | : _ } _ ",
"~ _ } 7 | | 9 7 } | 0 a | | } | } } } ~ _ : : } _ } #+u a _ ! #+O i ' ! 7 0 } ~ _ _ : | _ ~ ~ ~ ~ ~ | _ ~ ~ _ _ _ _ | | } } } } ",
"~ } } | a g g 7 } 7 } | | | 7 | _ _ _ ~ _ | | | | 0 | | | ~ = #+V k ' ! ~ ~ ! ~ _ | a 9 | _ _ _ ~ ~ } _ ~ ~ ~ ~ ~ | 7 } | | | | ",
"~ } | | 7 a b 9 | a | 7 | | 7 | | } } _ _ | | | | } ~ ~ : ~ = #+O q ~ ! ~ ~ _ ! ~ | a a ~ _ _ | | _ | _ _ ~ ~ ~ ~ | _ ~ _ _ ~ } ",
"_ | | 9 7 | | | | 0 | 7 7 | } | | | } | } | | | | 7 | | | } ' i K k ~ ~ ~ ~ _ _ ~ | 7 7 _ ~ ~ ~ } _ _ _ } } ~ _ _ _ _ 7 } _ _ } ",
"| a a a | | 9 7 | | 7 7 7 7 } } | | 7 a | | | | | } ~ ~ | _ ~ q K f ! ~ ~ _ _ ~ | 7 7 | | | _ _ _ } ~ _ | 0 } | | | | _ } } } | ",
"7 9 9 | | a f a 0 7 a | | 7 | } 7 7 | | _ | | | } ~ ~ { | _ ~ q K f ' ! _ _ _ _ | } } } ~ ~ } } | } _ _ | 0 0 7 | | } ~ } } 7 a ",
"} 0 0 0 a k k a | _ | } } | 7 | 7 7 7 | | | | | | | | | | ~ ~ t O k ' ! < } | ~ ^ } } ~ ~ | | | ~ ~ _ } } 7 7 0 | } ~ _ | | | | ",
"} | 0 a | 9 a 0 | ~ _ ~ ~ | | | 7 7 | } | | | 7 | _ ~ ~ ~ | } C V q ' ! ! } 0 } 7 7 7 } | 7 7 | ~ ~ } } } | 7 } ~ ~ ~ _ 7 7 7 7 ",
"_ | | | _ | } } _ ~ ~ ~ ~ _ _ | 7 7 _ _ _ | | | | ~ | 0 } ~ | P #.g = * - ^ } | 7 0 0 7 _ | | | ~ _ 7 0 0 } | _ ~ ~ ~ ~ } 7 7 a ",
"} | ~ ~ ~ } | _ ~ ~ ~ ~ ~ _ _ | | | _ _ _ | | 9 | a C P q _ : M Y f ~ ! #+Z C | | 0 0 | ~ _ ~ ~ ~ _ 7 0 0 7 | | ~ ~ ~ _ | | 7 | ",
"_ ~ ~ ~ ~ | 7 } } ~ _ _ _ } _ | | | | | | _ _ 7 7 7 C V q | : D V i ~ ! #+@.V a | 7 7 | ~ ~ ~ ~ ~ _ 7 0 | ~ _ _ _ _ } _ _ | | | ",
"| } } } } 0 7 6 } 7 } | 7 a | | | | } | } _ : f q A A A q u k P  .C k g q A A A a | | | } _ } } _ } 7 7 | _ _ } } } | } | | 7 7 ",
"0 | | 7 | 7 0 0 a 0 a f f i 0 7 a 0 | 7 7 | 7 f q ` ;.#.#.#.#.;.;.#.#.#.#.@.` K k | | | 7 7 z 0 | | 7 7 7 | 7 | | | 0 | 7 7 | a ",
"f 0 a a z a k i i z k #+q k a 0 a a z 0 z 0 z q O H.5+5+}+5+}+}+5+5+5+5+}+5+/+J.V g 9 a a a i i 0 0 0 0 0 a 0 0 0 i q z f a a k ",
"u k k #+t t t #+#+#+t #+#+#+#+#+t #+#+#+#+#+t C &.`.x+i+i+r+r+s+x+r+n+x+s+o+o+=+&.u k #+#+q #+#+#+#+#+i k #+#+i i #+t t t q t C ",
"i a a #+#+i i z 0 z i z z z i p t i 0 0 z i #+C _.=+i+b+4+b+}+b+f+b+}+i+b+}+5+/+&.t e k k i #+i z z z i #+t i 0 0 i k k a a i i ",
"'.,.,.^._._.^.>.>.^.^.^.{.'.'.^._.,.>.>.'.^.^.2.G./+b+5+5+0+5+5+f+b+}+b+b+}+}+5+l.,.>.)._._._._.^.^.^._._.[._.,.,._._.2._._.,.=.",
"`.=+=+=+=+~+=+T.T.=+~+/+=+`.T.`.$+=+=+=+`.T.T.=+X.E.t.h.h.h.t.h.t.x.x.x.x.t.E.O.X.H.H.`.=+=+=+`.T.T.=+/+/+/+ +T.T.=+=+=+=+=+W.H."};
