/* XPM */
static char * NO2_xpm[] = {
"64 64 8 1",
" 	c #F5CC27",
".	c #F9BD23",
"+	c #D39632",
"@	c #FFD83E",
"#	c #FFFD90",
"$	c #FFEC4F",
"%	c #FEE048",
"&	c #CC8E27",
"                  .........      ......................        +",
" @@@@@@@@@@@@@@@          @@@@@@@@@                           ++",
" @##################$$$$$###########$$$$$$@@@@@@@@@@@@$$######++",
" @##$$$$$$$$$$$$$$$$$$$$###$%%%%%$$%%%%%@@@            @@@%%%#++",
" @#$%%%@@@@@@@@@%%%%%$$###$%%%%%$$%%%%%@@@     ...    @@@%%%%#++",
" @#$%%@@@@@@@@@%%%%%$$###$%%%%%$$%%%%%@@@    ....    @@@%%%%%#++",
" @#$%@@@@@@@@@%%%%%$$###$%%%%%$$%%%%%%@@   .....    @@@%%%%%%#++",
" @#$@@@@@@@@@%%%%%$$###$%%%%%$$%%%%%%@@  .....     @@@%%%%%%%#++",
" @#$@@@@@@@@%%%%%$$###$%%%%%$$%%%%%%@@  ....      @@@%%%%%%%%$++",
" @#$@@@@@@@%%%%%$$###$%%%%%$$%%%%%%@@  ...       @@@%%%%%%%%%$++",
" @#$@@@@@@%%%%%$$###$%%%%%$$%%%%%%@@  ..        @@@%%%%%%%%%%$++",
" @#$@@@@@%%%%%$$##$$%%%%%$$%%%%%%@@  ..        @@@%%%%%%%%%%@$++",
" @#$@@@@%%%%%$$##$$%%%%%$$%%%%%%@@  .         @@@%%$%%%%%%%@@$++",
" @#$@@@%%%%%$$##$$%%%%%$$%%%%%%@@  .         @@@%%$%%%%%%%@@@$++",
" @#$@@%%%%%$$#$$$%%%%%$$%%%%%%@@           @@@@%%$$%%%%%%@@@@%++",
" @#$@%%%%%$$#$$$%%%%%$$%%%%%%@@          @@@@@%%$$%%%%%%@@@@@%++",
" @#$%%%%%$$$$$$%%%%%$$%%%%%%@@         @@@@@@%%$$$%%%%%@@@@  @++",
" @#$%%%%$$$$$$%%%%%$$%%%%%%@@        @@@@@@@%%$$$%%%%%@@@@   @++",
". #$%%%$$$$$$%%%%%$$%%%%%%@@       @@@@@@@@%%$$$$%%%%@@@@   . ++",
". #$%%$$$$$$%%%%%$$%%%%%%@@      @@@@@@@@@%%$$$$%%%%@@@@    . ++",
". #$%$$#$$$%%%%%$$%%%%%%@@    @@@@@@@@@@@%%$$$$$%%%@@@@    .. +&",
". $$$$#$$$%%%%%$$%%%%%%@@  @@@%@@@@@@@@@%%$$$$$%%%@@@@     ...+&",
". $$$#$$$%%%%%$$%%%%%%%@ @@@%%@@@@@@@@@%%$$$$$%%%@@@@     ....+&",
". $$##$$%%%%%$$%%%%%%%@@@@%%%@@@@@@@@@%%$$$$$%%%@@@@@     ....+&",
". $##$$%%%%%$$%%%%%%%@@%%%%%@@@@@@@@@%%$$$$%%%%@@@@@     .....+&",
". ##$$%%%%%$$%%%%%%%@%%%%%%@@@@@@@@@%%$$$%%%%%@@@@@@     .... +&",
" @#$$%%%%%$$%%%%%%%@%%%%%%@@@@@@@@@%%$$%%%%%%@@@@@@     ..... +&",
" @#$%%%%%$$%%%%%%%%%%%%%%@@@@@@@@@%%$%%%%%%%@@@@@@@     ....  +&",
" @#%%%%%$$%%%%%%%%%%%%%%@@@@@@@@@%%%%%%%%%%@@@@@@@@    ..... @+&",
" @#%%%%$$%%%%%%%%%%%%%%@@@@@@@@@%%%%%%%%%%@@@@@@@@     ....  @+&",
" @#%%%$$%%%%%%%%%%%$%%@@@@@@@@@%%%%%%%%%%@@@@@@@@@    ..... @@+&",
" @#%%$$%%%%%%%%%%%$%%@@@@@@@@@%%%%%%%%%%@@@@@@@@@@    .... @@@++",
" @#%$$%%%%%%%%%%%$%%@@@@@@@@@%%%%%%%%%%@@@@@@@@@@    .... @@@@++",
" @#$$%%%%%%%%%%%$%%@@@@@@@@@%%%%%%%%%%@@@@@@@@@@@    ... @@@@@++",
". #$%%%%%%%%%%%$$%@@@@@@@@@%%%%%%%%%%@@@@@@@@@@@@   ... @@%%@@++",
". #%%%%%%%%%%%$$%@@@@@@@@@%%%%%%%%%%@@@@@@@@@@@@    .  @@%%@@@++",
". $%%%%%%%%%%$$%@@@@@@@@@%%$%%%%%%%@@@@@@@@@@@@@   .  @@%%%@@@+&",
". $%%%%%@%%%$$%@@@@@@@@@%%$%%%%%%%@@@@@@@@@@@@@     @@@%$%%@@@++",
". $%%%%@%%%$$%@@@@@@@@@%%$$%%%%%%@@@@@@@@@@@@@@   @@@@%$%%@@@ +&",
". $%%@@%%%$$%@@@@@@@@@%%$$%%%%%%@@@@@@@@@@@@@@  @@@@@%$$%%@@@ +&",
". $%@@%%%%$%@@@@@@@@@%%$$$%%%%%@@@@@@@@@@@@@@ @@@@@@%$$%%@@@@ +&",
". %@@%%%%$%@@@@@@@@@%%$$$%%%%%@@@@@@@@@@@@@@@@@@@@@%$$$%%@@@  +&",
". @@@%%%$%@@@@@@@@@%%$$$$%%%%@@@@@@@@@@@@@@@@@@@@@%$$$%%@@@@  +&",
". @@%%%$%@@@@@@@@@%%$$$$%%%%@@@@@@@@@@@@@@@@@@@@@%$$$%%@@@@@  +&",
". @@%%%%@@@@@@@@@%%$$$$$%%%@@@@@@@@@@@@@@@@@@@@@%$$$%%@@@@@   +&",
". @%%%%@@@@@@@@@%%$$$$$%%%@@@@@@@@@@@@@@@@@@@@@%$$$%%@@@@@@   +&",
". @%%%@@@ @@@@@%%$$$$$%%%@@@@@@@@@   @@@@@@ @@%$$$%%@@@@@@    +&",
". @%%@@@ @@@@@%%$$$$$%%%@@@@@@@@       @@  @@%$$$%%@@@@@@@    +&",
".  %@@@  @@@@%%$$$$$%%%@@@@@@@      .     @@%$$%%%@@@@@@@    @++",
".  @@@  @@@@%%$$$$$%%%@@@@@@       .     @@%$%%%%@@@@@@@     %++",
".   @@  @@@%%$$$$$%%%@@@@@       ...    @@%%%%%%@@@@@@@     @%++",
".   @  @@@%%$$$$%%%%@@@@       ....    @@%%%%%@@@@@@@@      %%++",
".      @@%%$$$%%%%%@@@@      ......   @@%%%@@@@@@@@@@      @%%++",
".     @@%%$$%%%%%%@@@@     .......   @@%%@@@@@@@@@@@       %%%+&",
".    @@%%$%%%%%%@@@@@    ........   @@%@@@@@@@@@@@@       @%%%+&",
".   @@%%$%%%%%@@@@@@    ........   @@@@@@@@@@@@@@@       @%%%%+&",
".  .@%%%%%%%@@@@@@@    ........   @@@@@@@@@@@@@@@       @%%%%$++",
". .. @@%%%@@@@@@@@    ........   @@@@@@@@@@@@@@@       @%%%%%$++",
". ... @@@@@@@@@@@    ........   @@@@@@@@@@@@@@        @%%%%%%$+&",
". ..... @@@@@@@@    ........   @@@@@@@@@@@@@        @%%%%%%%%$+&",
".  ...... @@@@@    ........   @@@@@@@@@@@         @%%%%%%%%%%$+&",
".    ......       .......    @@@@@@@@@          @%%%%%%%$$$$$$+&",
".++++++++++++++++++++++++++++++++++++++++++++++++++++++++++++++&",
"+++++++++++++++++&&&&&&&&&&&&&++++++&&&&&&&&&&&&++++++&&+++&&&&&"};
