/* XPM */
static char * CubNorth_xpm[] = {
"64 64 256 2",
"  	c #B5B0BE",
". 	c #989099",
"+ 	c #B67E4A",
"@ 	c #90808F",
"# 	c #B17344",
"$ 	c #7B7D9E",
"% 	c #807A8C",
"& 	c #9E7255",
"* 	c #8A7577",
"= 	c #7E7784",
"- 	c #7B7179",
"; 	c #A56438",
"> 	c #AE5F38",
", 	c #736E7B",
"' 	c #716C84",
") 	c #736D71",
"! 	c #6B6B7B",
"~ 	c #6A6C70",
"{ 	c #766277",
"] 	c #77606B",
"^ 	c #9C582F",
"/ 	c #6B6276",
"( 	c #6B636B",
"_ 	c #795D63",
": 	c #6B6458",
"< 	c #63636B",
"[ 	c #636074",
"} 	c #636363",
"| 	c #6B5E63",
"1 	c #63635A",
"2 	c #5A646B",
"3 	c #5A6563",
"4 	c #636352",
"5 	c #6B5A6B",
"6 	c #895437",
"7 	c #5A635A",
"8 	c #6B5A59",
"9 	c #5A5D74",
"0 	c #635A6B",
"a 	c #5A6352",
"b 	c #635A63",
"c 	c #635A5A",
"d 	c #5A5A6B",
"e 	c #635A52",
"f 	c #6B5263",
"g 	c #5A5A63",
"h 	c #6D525A",
"i 	c #635A4A",
"j 	c #5A5A5A",
"k 	c #63526C",
"l 	c #5A5A52",
"m 	c #635263",
"n 	c #6B524A",
"o 	c #525A63",
"p 	c #6D4F52",
"q 	c #5A5A4A",
"r 	c #63525A",
"s 	c #9F3D26",
"t 	c #525A5A",
"u 	c #5A526B",
"v 	c #635252",
"w 	c #525A52",
"x 	c #5A5263",
"y 	c #63524A",
"z 	c #525A4A",
"A 	c #52536B",
"B 	c #5A525A",
"C 	c #5A5252",
"D 	c #634A63",
"E 	c #6B4A4A",
"F 	c #525263",
"G 	c #5A524A",
"H 	c #8C3E2B",
"I 	c #634A5A",
"J 	c #5A5342",
"K 	c #52525A",
"L 	c #634A52",
"M 	c #525252",
"N 	c #5A4A63",
"O 	c #644B42",
"P 	c #634A4A",
"Q 	c #52524A",
"R 	c #5A4A5A",
"S 	c #48535A",
"T 	c #525242",
"U 	c #91381F",
"V 	c #5A4A52",
"W 	c #524A63",
"X 	c #425263",
"Y 	c #485252",
"Z 	c #5A4A4A",
"` 	c #4A524A",
" .	c #524A5A",
"..	c #5A4A42",
"+.	c #4A5242",
"@.	c #524A52",
"#.	c #5A4A39",
"$.	c #644244",
"%.	c #524A4A",
"&.	c #5A425A",
"*.	c #4A4A5A",
"=.	c #4A4863",
"-.	c #524A42",
";.	c #524B39",
">.	c #5A4252",
",.	c #4A4A52",
"'.	c #5A424A",
").	c #4A4A4A",
"!.	c #52425A",
"~.	c #5A4242",
"{.	c #4A4A42",
"].	c #663E34",
"^.	c #524252",
"/.	c #5A4238",
"(.	c #52424A",
"_.	c #424A4A",
":.	c #4A425A",
"<.	c #524242",
"[.	c #424A42",
"}.	c #4A4252",
"|.	c #42445D",
"1.	c #524239",
"2.	c #4A424A",
"3.	c #78321E",
"4.	c #5A394A",
"5.	c #4A4242",
"6.	c #5A3942",
"7.	c #523952",
"8.	c #424152",
"9.	c #42424A",
"0.	c #454339",
"a.	c #5A3935",
"b.	c #52394A",
"c.	c #424242",
"d.	c #523942",
"e.	c #364647",
"f.	c #4A3952",
"g.	c #523B31",
"h.	c #523939",
"i.	c #4A394A",
"j.	c #67331B",
"k.	c #4A3942",
"l.	c #4A3939",
"m.	c #673110",
"n.	c #42394A",
"o.	c #493931",
"p.	c #673108",
"q.	c #423942",
"r.	c #423939",
"s.	c #5A321D",
"t.	c #39394A",
"u.	c #52312F",
"v.	c #4A3142",
"w.	c #6C2910",
"x.	c #393942",
"y.	c #5A3110",
"z.	c #393A39",
"A.	c #4A3139",
"B.	c #2D3A56",
"C.	c #4A3131",
"D.	c #65271A",
"E.	c #632910",
"F.	c #652908",
"G.	c #423139",
"H.	c #473129",
"I.	c #2C3947",
"J.	c #3C3142",
"K.	c #39314A",
"L.	c #423131",
"M.	c #632900",
"N.	c #6B2110",
"O.	c #5A2910",
"P.	c #5A2A07",
"Q.	c #5A261B",
"R.	c #393139",
"S.	c #472939",
"T.	c #313437",
"U.	c #31304A",
"V.	c #522A10",
"W.	c #632110",
"X.	c #452931",
"Y.	c #392F31",
"Z.	c #52261A",
"`.	c #642008",
" +	c #522908",
".+	c #472A1E",
"++	c #442929",
"@+	c #312E42",
"#+	c #5A2010",
"$+	c #392939",
"%+	c #5A2108",
"&+	c #48290B",
"*+	c #522110",
"=+	c #392929",
"-+	c #5A1F00",
";+	c #522300",
">+	c #312939",
",+	c #522108",
"'+	c #242C46",
")+	c #31292E",
"!+	c #232C39",
"~+	c #4A2106",
"{+	c #472012",
"]+	c #5A1808",
"^+	c #292A2C",
"/+	c #392125",
"(+	c #52170A",
"_+	c #1E2B2B",
":+	c #521600",
"<+	c #292034",
"[+	c #4A1708",
"}+	c #421B05",
"|+	c #212133",
"1+	c #291F26",
"2+	c #4A1500",
"3+	c #351B15",
"4+	c #381B04",
"5+	c #211C25",
"6+	c #421002",
"7+	c #330F25",
"8+	c #3D0C14",
"9+	c #121A39",
"0+	c #391001",
"a+	c #2E1002",
"b+	c #181713",
"c+	c #260F14",
"d+	c #310914",
"e+	c #121521",
"f+	c #3B0501",
"g+	c #131807",
"h+	c #310808",
"i+	c #310800",
"j+	c #120F29",
"k+	c #0C1413",
"l+	c #290800",
"m+	c #131004",
"n+	c #290308",
"o+	c #310000",
"p+	c #250012",
"q+	c #190802",
"r+	c #290000",
"s+	c #210008",
"t+	c #060D08",
"u+	c #210000",
"v+	c #150118",
"w+	c #160110",
"x+	c #060C00",
"y+	c #100021",
"z+	c #180008",
"A+	c #180000",
"B+	c #060514",
"C+	c #080021",
"D+	c #0A0008",
"E+	c #0B0000",
"F+	c #000008",
"G+	c #000000",
"6 6 6 6 6 6 6 3.6 6 6 6 6 H 6 6 6 6 6 6 6 6 H 6 6 6 6 6 6 6 H H 6 6 6 H H 6 ].H 6 H 6 6 6 6 6 6 6 6 6 6 6 6 H 6 6 6 6 6 6 6 6 6 ",
"6+6+6+0+h+8+3+8+6+}+4+3+3+3+3+{+{+{+{+(+*+*+{+[+[+[+}+[+{+{+.+{+*+}+}+4+4+3+3+{+{+{+{+{+(+*+{+*+*+{+{+{+{+{+[+8+[+[+{+{+{+3+}+}+",
"]+j.(+~+&+V.O.%+:+s.~+ +O.O.Z.Z.&+s.{+,+E.w.E.E.%+{+,+%+D.s.s.Q.*+Q.}+}+{+V.E.E.O.s.~+ +F.p.y.Q.#+Z.[+[+*+Z.Q.#+W.s.~+{+#+Z..+*+",
"]+0+0+(+O.O.O.O.,+a+a+#+Q.s.j.W. +a+a+,+W.w.F.F.%+l+a+%+W.D.D.E.(+l+a+~+O.y.w.w.W.0+i+]+O.E.y.Q.Z.l+q+[+O.E.Q.E.#+a+l+~+%+O.O.%+",
"]+[+}+,+O.Q.O.*+V.{+V.O.O.Z.%+E.O.~+,+O.E.D.O.W.E.#+%+F.E.O.W.O.O.,+,+`.E.V.D.D.E.%+P.P.O.#+*+V.V.{+}+#+#+E.F.P.O.*+]+`.%+,+,+]+",
"W.#+%+E.(+s.,+*+O.E.O.E.,+Z.~+P.O.O.O.s.&+s.}+O.E.E.E.E.%+O.~+V.y.E.E.F.~+y.~+E.O.E.y.j.Z.*+}+*+O.O.O.O.[+s.}+O.V.O.O.E.%+*+}+(+",
"6+[+(+~+}+a+}+{+{+[+[+[+6+i+0+[+(+(+[+6+0+l+0+[+[+[+[+[+[+a+l+6+[+,+,+(+0+l+6+[+[+[+[+(+[+f+i+6+2+[+}+6+0+i+i+6+6+}+6+6+6+0+i+6+",
"s.*+4+4+{+3+3+3+3+{+.+Q.D.D.3.3.3.3.D.Z.Z.Q.D.D.3.3.j.3.j.D.D.D.3.3.3.3.D.D.D.3.D.D.3.3.3.3.D.D.D.3.j.j.D.D.D.D.j.j.3.D.3.3.j.3.",
"|+1+3+a+l+3+3+++/+b+b+b+k+t+t+t+k+k+e+|+e+|+k+B+t+t+k+t+F+B+B+k+k+t+k+t+k+B+k+j+j+j+j+j+e+k+k+k+k+k+e+B+5+B+j+j+y+e+j+j+j+|+e+e+",
"8.<.].].].a.u.u.$.(.(.i.}.9.x.8.@ @+T.t.8.$ @+'+'+'+'+'+T.@+I.t.8.9.t.x.x.|+!+)+T.q.9._.,.,.9.9.x.G.R.@+% <+>+>+)+1+^+!+'+!+@+e.",
"C <.a.u.].$./.u.u.>.^. .m b b  .= x.).,.K *.t.F 8.8._.o ~ ~ < 2 } < 7 j @.,.j c v j c B B B C B c c C @.R.^+_.c.).Q ` _._.).M j ",
"C Z ~.E $...$.~.(.^.^.@.R B B B ,.@.C @.K B x K K ,.,.j g t j j g j j C G %.C v C C r Z Z Z Z V Z %.%.%.l.l.5.c.Q %.Q Q C l l C ",
"c v P ~.a.~.l.k.q.2.^.^.^.@.@.V B C C B g B  .@.B K K B g g g B K B B B C Z C C Z %.G %.Z Z Z V C G C M l.-.-.c.C B c c r r e B ",
"B G ~.<.h.P l.5.q.2.(.2.@.@.@.R B M C @.B  . .@.C K F  .K  .@.,.@.}. . .@.Z %.Z Z %.-.-.-.G G Q G Q Q Q 1...-.5.c b r B c j C C ",
"j C /.<.G ..<.%.(.%.(.(.(.C B C B B C @.g g g g B x d F K B B  . .K  . .@.Z Z G C C C G G G G -.-.-.{.-.1.#.l @.j b m B B B C C ",
"j C ..%.Z ..<.C C G Z Z Z V @.V B } l @.0 2 2 0 } g d d x B B x x x x B B C v v v v %.%.-.T -.J G J G G ..-.M @.g x x B j j l j ",
"C G 1.%.C 1.<.C B C Z '.(.%.C M C j M _.g g d F B K F F K  .@. . .x K B C C C v C C G Z ..G G Z -.T G G q G C ,.j B B B @.C C @.",
"M Z ~.C C g.l.@.M C Z '.%.C C C C M ).9.o F F K B K  .W F K @.@.B B K C C C G v C C G Z G G G Z T T Q G G Q M @.B M @.@.).%.%.%.",
"Q M <.Z C ~.d.,.@.@.V Z Z C C G C C ).9.g x F g j g g g g x j B B x g c c c v v v C Z Z ..G Z G G T J G G l | B %.C v r R (.(.%.",
"M C Z l l h.l.%.V Z Z Z Z V C B C l ).x.K d g g B j x K  .@.M @.B j x B C v r v v C Z Z -.G G G C C G G G G c ( c h 1.k.@.%.%.C ",
"C C c j C Z (.Z G Z Z %.V Z C C j l M c.9.d d x j B j B B C B B j B K j c v r c v C C Z Z Z G %.Q Q G G | | r.Q l = l.r.%.%.%.Q ",
"Q j j K @.5.5.%.Z G Z (.Z Z C C l j } g ,./ d }.j c c B r B C C B B B c r v v v v C C Z Z %.G %.@.@.Q Q {.)+z.Q ` c.=+L.%.M C M ",
"M l j j %.5.2.V G y Z %.(.v c c c j c b g x K.,.B C j @.V C C G K B B C B C C v r C G V Z Z G C M @.%.%.%.%.Q Q M C @.<.%.G G M ",
"j l j B @.%.%.V v y G V M V l j 1 l c B F d *.B j B B v C v B j C B b c r r v r r G G Z '.Z B B  .(.G %.%.%.Q Q M l c Z C C M l ",
"j l M C C C @.B e c c r e G C C C C r @. .F *.x j C C B v v C r V C B c c e r r C V V M Z V c B B  .B C Q %.G l c j b V C 1 1 j ",
"Q M Q M C M ).B c c r c c l C C M C C (. .x 0 b c 8 8 e v v v C C r c e C G v r C C V (.%.Z B  .R  .B C C C l j j j j (.C C z M ",
"Q C B j j M ).B C C v C B C C v C B Z h.k.}.x g c c v v v v r C C v C G C e c C C V Z -.(.(. .}.,.}.R B C C l j K K K @.C M M M ",
"j j B j l M M B B C r r B %.V v C M y ~.I  . .B B B r v C V v r v C Z Z C c c v B C %.%.(.Z @.!. .R  .B j C C K K j ,.,.e l j j ",
"C C j j j B M @.@.Z Z C C Z Z V C V V h.l. .x B c c e e v Z v c e l e e j c c C V B V Z %.V R @. .^.R x B C C @.M C @.@.C l C l ",
"C M B g x B B Z C C C v V C C c . V v p d.N d g c c 8 r r c e 8 e C c 1 c c c C M B C Z Z V V V B  . .F K R @.@.%.@.(.2.r ( Q %.",
"j j B x x  .@.Z C B C @.Z Z Z Z = q.r d.l.x  .B C v r v r v r c 8 c C c C l C %.%.r h %.Z Z %.V u x  . .K  .@.2.(.5 C.l.r . 2.M ",
"} 1 C  .@.^.>.k.<.%.V L <.l.<.r %.%.C A.A. .R B C j r r v r r c v v C c j l C G Z - % q.'.C P Z x m F  .}.2.l.k.h.L /+d.V 9.R.j ",
"b B ^.}.(.A.l.A.L.h.'.'.l.C.A.@.2.l.L.++6.^.B C C C C C C C v v v v e l l l G G Z 2.R.l.P ] 8 L V x  .R R Z h p P /.a.P @.9.,.K ",
"< ~ b r d.L p E L.r 5 { = ] h r Z '.L E L m B B C G G C v r r r C v v C l C %.Z C %.5.'.P d.h.h.A.^.x R b | b 8 L E $.r ) b } } ",
"M M C K b - ( A.G.(.- V  .R r r v e r r >.@ }.@.C l C C C v C C C C C %.Z Q G G V Z Z Z L A.L.h.C.d. .B B M C C V <.a.~.@.M M B ",
"M C C M K 9.R.h.G.2.= r.@.@. .R C B x x (.k.>+@.C B M V C e C C C c C G Q G Q Z Z (.%.Z v C.H.] u.h.B B B M M B V (.h.~.C C C @.",
"%.%.G M K 9.Z ~.}. .k.r.C B C R B B  . .R (.@.C M M C C B j C C C C C C C C G y C C V v C A.++H.C.Z B B M M M B @.d.h.P C C @.%.",
"Z Z Z V M 2.h.~.^.g <.<.C M M R B R  .x R (.B C Q M j j c j j B B l C l G G c c C V V v v C.C.h.$.v j B C C C C %.'.~.Z Z C Z Z ",
"%.Z C C B @.'.6.^.g C ..M C @.%.@.B x u R '.B C C j g j j C j C C B c l G l C c B B V v 8 o.C.u.$.r x K C C l l %.<.~.Z G C Z Z ",
"v c c l K B B '.}.x C Z C @.%.%.C B x N R Z B c c j B j j 1 l C C c c B l c c | B B r v f d.h.a.$.C B B M l C C M %.P y C C G C ",
"c } } } g g x R  .g l C M G Q Z r B R x R Z C B B B g j j j l G l r c c l B j b B B B v c <.<.a.~.C g B B l C C M M C e l j e j ",
"l c } } g g x R  .d j C C G Q v r B R B B G c c j j x g j j l C C B B r C j B B B B B v b (.d.a./.C g x j B M C C M l c j j j l ",
"C j j j j g g R !.d d B M G G e r B B B B C c c c j g g j l l l l B B C C C g g x B B B b ^.Z ~.~.V  .@.C C C M @.M j 1 j M C l ",
"C C j j g x x R  .d d l C G %.e v B B B v v C e c b b g j j l l l j j c c j x x x b B B b (.'.L ~.(.@.@.V C C %.Q C B j C C C C ",
"c c j j g F K R  .9 g B %.%.-.C v C B B e c C c c b b g j c c e e c r B B g x N x - ) ^.b 2.(.- C.<.@.V V @.Q @.C C C j B B C C ",
"j j j j g g x x u A K M C G G e e c c c e c c c c b g j l l l l e l B B r B B m x V q.@.b }.k.G.X.%.@.V %.@.@.@. .C C C B C C B ",
"j B B j j g g d u F K B r r e e e c j l c v c e c g g j j j q l e v j c b g x x x  .R r b 2.%.k.h.2. .@.@.(.(.@.M M G Q Q %.%.B ",
"j j j j j g g d A F  .V V C v v l j j l l C C v c b g j 7 1 1 : : c c b b b N x x @.^.V b (.'.(.~.^. .V @.@.@.C M @.Q Q G V C j ",
"j j l l j B j g F F x C C C v e C j j j j C C C r g g j j 7 1 b c c b g x x m x R &.(.r 5 ,.(.~.~.@. .B @.@.@.M C Q G G C j j j ",
"M C l l l B B x g d g B B r C v C R C C C C j j j x g c b b b b b g x x B B m x B R V r b @.%.Z '. .B B B K C M C C G Z G C C C ",
"C C l j j C C B x d F C B C C v C C B C C l C B C B g b g b b b g x x x B x x x B B C B g @.C V V R B B @.,.%.M %.C G G l C C l ",
"C V C M C C j g u d d B C V V C C R  .V V C j j j j g x g b b x x g m m x B x x B B B R k ,.V C V R B R @.2.2.2.%.%.G C r B C C ",
"C C l C C j B g F A u B V C C B V V @.Z %.%.Q G C M C C B j x j B B B B B R B R B R K x 0 }.%.V @.R x B @.%.%.%.%.Q J G B j B C ",
"V V V V V C j x A A u x C C V @.B B B R V (.%.G ..%.B c c B B B R B B R @.(.@.!.R  .R x 0 }.(.%.@. . .@.).-.%.%.%.G G C B R V C ",
"C Z %.%.(.%.K K F A W R B @.%.@.B x B R  .Z -.......v b B B B B B B R ^.5.d.^. . .!.N R [ }.(.(.^. . .%.%.Z Z %.%.G G @. . .C M ",
"C C C C C B M  .=.=.W  . . .M @. .B x W  .%.-.-.#.#.O %.%.%.).@.(.%.^.2.k.h.'.!.!.W R  .0 8.2.2.(. . .@.%.%.%.{.-.%.%.@. .K M C ",
"c c c l C ) ( }.:.A @ *. .,.,.2.,.,.K K K @.....1.| ] (.%.%.%.%.%.-.2.k.l.l.(. . .0  .8.x }.).| r 2.,.%.%.).%.).%.%.%.@.*.@.C j ",
"C c b c @.5.x.8.8.*.= t.,.,.2.2.}.}.8.}.}.2.-.<.l.C ( q.%.%.%.%.2.5.q.k.l.l.k.}.8.}.n.x.R }.K } ( q.^.@.%.%.%.2.2.%.@.@.,.).%.%.",
"c j g B ,.9.9.8.8.8.8.8.}.W d g  .*.8.t.n.J.q.r.G.G.n.9.}.}.2.n.9.2.2.2.2.(.}.}.:.:.}.2.@.8.@.c b x B C Z @.).).2.).2.,.@.%.%.M ",
"g K  . .}.8.}. .*.*.8.:.:.*.,.}.2.^.}.8.8.i.n.q.R.x.x.t.J.J.q.n.2.2.n.9.n.9.8.8.*.*.W R b F *.,.@. .@.@.@.,.@.,.2.,.@.@.B B B B ",
"( , , , ! / / / / / ! , - - = - , , { ! ! = @ = / ! ! ! ! ( - - = = , ! = = , ! , , , = = = , , ~ ~ ( ) - - - ) / ) , - = = - ~ ",
"@.K B B  . .,.@.}.}.}.K  . . .j  .x x  .x g g g  . .g g  . . . .B B K K B B g K j x B @.*.*. .K j B M @.@. .B @.^.^.@.@.@.K g B ",
"q.q.5.q.c.z.R.R.Y.z.q.q.n.q.c.c.9.q.n.2.2.2.9.9.c.r.q.c.c.c.2.2.2.q.c.2.2.5.c._.).).c.c.q.z.q.5.r.c.c.q.).k.q.q.R.R.R.R.R.q.c.).",
"5+m+g+b+m+t+t+k+g+b+b+k+b+g+g+b+e+b+b+b+e+b+b+g+b+b+b+k+b+b+b+k+m+k+t+m+m+m+b+g+b+b+g+g+b+m+b+b+b+b+b+k+b+g+b+b+5+b+b+5+5+^+1+^+"};
