/* XPM */
static char * CubSouth_xpm[] = {
"64 64 256 2",
"  	c #BCA787",
". 	c #BD804A",
"+ 	c #B78152",
"@ 	c #928B75",
"# 	c #B57B4A",
"$ 	c #B07341",
"% 	c #A3764A",
"& 	c #AE6B40",
"* 	c #80775D",
"= 	c #A56A3A",
"- 	c #926A4F",
"; 	c #8F623A",
"> 	c #995C31",
", 	c #73684F",
"' 	c #9B5729",
") 	c #6B644D",
"! 	c #63644C",
"~ 	c #A8462C",
"{ 	c #6B5D3E",
"] 	c #635E42",
"^ 	c #754D2D",
"/ 	c #63594B",
"( 	c #635C39",
"_ 	c #9C412A",
": 	c #635B31",
"< 	c #5A5A4B",
"[ 	c #5A5B42",
"} 	c #A03D20",
"| 	c #8E422C",
"1 	c #5A5A39",
"2 	c #5A5A31",
"3 	c #63523C",
"4 	c #5A5A29",
"5 	c #525A39",
"6 	c #635231",
"7 	c #525A31",
"8 	c #5A5242",
"9 	c #635229",
"0 	c #525A29",
"a 	c #5A5239",
"b 	c #903B21",
"c 	c #525443",
"d 	c #5A5231",
"e 	c #5A5229",
"f 	c #525239",
"g 	c #5A5221",
"h 	c #525231",
"i 	c #5A4A42",
"j 	c #525229",
"k 	c #5A4A39",
"l 	c #4A5239",
"m 	c #525221",
"n 	c #4A5331",
"o 	c #5A4A31",
"p 	c #524A42",
"q 	c #5A4A29",
"r 	c #4A5229",
"s 	c #524A39",
"t 	c #5A4A21",
"u 	c #4A5221",
"v 	c #4A4B42",
"w 	c #524A31",
"x 	c #524A29",
"y 	c #4A4A39",
"z 	c #524A21",
"A 	c #5A4231",
"B 	c #85301C",
"C 	c #4A4A31",
"D 	c #835632",
"E 	c #5A4229",
"F 	c #4A4A29",
"G 	c #524239",
"H 	c #424A39",
"I 	c #4A4A21",
"J 	c #524231",
"K 	c #424A31",
"L 	c #4A4A18",
"M 	c #524229",
"N 	c #633A25",
"O 	c #414A29",
"P 	c #4A4239",
"Q 	c #524221",
"R 	c #424A21",
"S 	c #6E341E",
"T 	c #4A4231",
"U 	c #524218",
"V 	c #4A4229",
"W 	c #4A4221",
"X 	c #424232",
"Y 	c #4A4218",
"Z 	c #424229",
"` 	c #5A381D",
" .	c #523929",
"..	c #424221",
"+.	c #6B310C",
"@.	c #424318",
"#.	c #523921",
"$.	c #4A3931",
"%.	c #394229",
"&.	c #633110",
"*.	c #4A3929",
"=.	c #38431F",
"-.	c #633108",
";.	c #4A3921",
">.	c #4A3918",
",.	c #6C2910",
"'.	c #6C271A",
").	c #403931",
"!.	c #423929",
"~.	c #5A3110",
"{.	c #6B2908",
"].	c #423921",
"^.	c #523315",
"/.	c #5A3108",
"(.	c #63281A",
"_.	c #423918",
":.	c #632910",
"<.	c #393929",
"[.	c #632908",
"}.	c #4A3121",
"|.	c #393921",
"1.	c #5A291A",
"2.	c #632900",
"3.	c #443129",
"4.	c #4A3118",
"5.	c #393918",
"6.	c #6B210E",
"7.	c #5A2910",
"8.	c #522921",
"9.	c #423121",
"0.	c #5A2908",
"a.	c #313921",
"b.	c #5A2A00",
"c.	c #423118",
"d.	c #443110",
"e.	c #632110",
"f.	c #522912",
"g.	c #393129",
"h.	c #393121",
"i.	c #5A211C",
"j.	c #632008",
"k.	c #522906",
"l.	c #632100",
"m.	c #393118",
"n.	c #5A2110",
"o.	c #393110",
"p.	c #44291A",
"q.	c #5A2108",
"r.	c #4A2908",
"s.	c #313121",
"t.	c #283521",
"u.	c #313218",
"v.	c #452910",
"w.	c #522019",
"x.	c #2E2F2A",
"y.	c #522110",
"z.	c #5A1F00",
"A.	c #522108",
"B.	c #392921",
"C.	c #522100",
"D.	c #392918",
"E.	c #263218",
"F.	c #392910",
"G.	c #5A1810",
"H.	c #4A2108",
"I.	c #472110",
"J.	c #312921",
"K.	c #4A2200",
"L.	c #5A1808",
"M.	c #312918",
"N.	c #312A10",
"O.	c #213110",
"P.	c #3E2308",
"Q.	c #521710",
"R.	c #521808",
"S.	c #272921",
"T.	c #392118",
"U.	c #292918",
"V.	c #392110",
"W.	c #292910",
"X.	c #521600",
"Y.	c #3C2100",
"Z.	c #4A1808",
"`.	c #312118",
" +	c #4A1800",
".+	c #1F2918",
"++	c #312110",
"@+	c #212910",
"#+	c #292121",
"$+	c #521008",
"%+	c #302108",
"&+	c #292118",
"*+	c #3E1808",
"=+	c #292110",
"-+	c #212121",
";+	c #3E1800",
">+	c #4A1000",
",+	c #212018",
"'+	c #212110",
")+	c #212108",
"!+	c #3F0F15",
"~+	c #421000",
"{+	c #172210",
"]+	c #410E08",
"^+	c #182108",
"/+	c #2C1510",
"(+	c #391000",
"_+	c #2A1608",
":+	c #2D1118",
"<+	c #131E18",
"[+	c #211810",
"}+	c #440800",
"|+	c #2E1100",
"1+	c #181810",
"2+	c #211407",
"3+	c #181808",
"4+	c #181800",
"5+	c #2E0719",
"6+	c #0F1908",
"7+	c #0E1810",
"8+	c #390400",
"9+	c #310800",
"0+	c #101800",
"a+	c #2E0608",
"b+	c #2C0510",
"c+	c #290800",
"d+	c #131010",
"e+	c #131008",
"f+	c #1D0810",
"g+	c #310000",
"h+	c #101000",
"i+	c #1D0800",
"j+	c #071010",
"k+	c #180808",
"l+	c #071008",
"m+	c #290000",
"n+	c #210208",
"o+	c #081000",
"p+	c #210010",
"q+	c #1C0018",
"r+	c #210000",
"s+	c #0C0808",
"t+	c #180010",
"u+	c #180008",
"v+	c #0A0800",
"w+	c #100018",
"x+	c #180000",
"y+	c #100010",
"z+	c #030610",
"A+	c #000808",
"B+	c #100000",
"C+	c #000800",
"D+	c #0A0008",
"E+	c #080000",
"F+	c #000008",
"G+	c #000000",
"^ D D D ^ D D ^ D D D D ^ ^ D ; D D D D D ^ ^ D D D D ; ; D ^ ^ D D D ^ ^ ^ S ^ D ^ D D ^ ^ D D D ; D D D ^ ^ D D D D D ^ D D D ",
"~+~+]+(+|+(+!+!+]+!+*+V.V.V.V.p.p.*+I.Q.Q.w.Q.Z.Z.]+*+Z.Q.I.w.I.Q.*+*+*+*+*+V.!+!+V.I.I.Q.Q.w.Q.y.I.!+Q.!+!+!+*+Q.]+!+!+!+!+*+~+",
"X.(.R.Z.H.y.7.q.X.` H.A.f.1.^.f.f.#.H.A.:.,.:.:.q.I.A.q.(.1.(.1.y.1.P.P.v.f.0.:.0.` H.A.[.-.-.(.7.y.I.Z.y.8.1.n.e.(.Z.I.n.8.4.A.",
"L.(+(+R.0.~.f.7.A.(+|+n.1.(.(.:.A._+|+A.:.,.+.+.q.c+9+q.e.'.'.:.R.c+|+H.7.~.,.,.e.(+9+A.7.,.&.1.f.c+i+Z.0.:.(.(.n.9+|+A.q.7.f.q.",
"q.Z. +A.7.1.1.n.f.I.v.7.1.w.q.[.0.H.H.7.:.1.1.:.:.n.q.[.:.7.e.7.7.R.A.[.:.7.1.:.[.0.q.0.7.n.y.f.f.H.*+n.q.[.[.7.7.y.q.j.q.A.A.L.",
"e.n.q.e.R.` R.y.n.:.7.:.A.~.H.0.7.7.7.(.v. .P.:.:.:.:.:.q.^.H.k.~.:.:.[.H.~.H.:.~.&.~.` w.y.*+y.7.7.7.7.Z.` ;+7.f.7.7.:.q.n.;+R.",
"]+Z.Z.H.*+|+P.I.I.Z.Z.Z.~+8+8+Z.R.R.R.*+(+c+(+Z.Z.Z.Z.Z.Z.|+c+~+Z.R.A.R.(+c+~+]+Z.Z.Z.Q.Z.(+(+~+>+Z.*+~+(+9+9+~+~+~+~+~+>+(+9+]+",
"(.I.*+*+I.V.*+V.V.*+f.1.(.'.'.S '.S '.w.w.(.(.'.'.'.'.S S S (.'.S '.S '.'.(.'.'.'.'.'.'.S '.'.'.'.S S '.(.'.(.(.'.'.S '.'.S '.S ",
"e+e+2+i+x+3+[+=+[+e+h+e+s+C+C+C+v+e+e+1+7+d+d+v+C+G+C+G+G+C+A+G+A+C+s+C+v+A+A+d+d+7+e+s+l+l+v+v+s+s+s+A+A+A+z+d+s+j+j+j+s+d+e+l+",
"s.m.4.c.c.m.F.p.}.M.`.&+&+'+,+.+X {+U.s.S.< -+{+<+<+{+<+{+{+,+.+S..+.+@+@+1+{+'+U.M.u.s.u.u.U.U.W.U..+.+c ,+.+,+{+1+{+{+.+.+.+E.",
"V >.c.d.>.>.>.v.F.*.9.].V V V Z , M...Z F !.U.!.|.a.|.Z C n F r r F F Z ].|...W W F x x x F V Z W W W ].s.'+|.a.=.=.=.=.=.|...F ",
"x Q #.#.#.Q ;.c.].!.*.V x w w x ].].z F C F T F F Z Z h f h h h h h h x I W x x M x q E Q z x x x z F W m.m.].|.I ..W I I F x x ",
"e z Q >.4.W _._.h.*.V V M F x x x x x C h C C F h F C h f h h h h x w w x Q x q q x e x z M x x x z F F _.W W ].x x x x x o e h ",
"j x Q W >.x ].].5.W V V M F V w x x x C w C T x x w C C C w w w F T T J M M x x x z z I I z m j x z j F W z I _.x w w o o e x j ",
"h x ;._.I M ].W ].W V W M x x w w F x F h C w w F C s C C w w T V T T T V x Q t z x x z z j j z z I I I @.I F ..h o w w w d j x ",
"7 x ;.V F M W V x z M x M x x x x h j F 5 f f a d a f s w w w w s s s w w x x x q q x z z z z z z z z z I ..x V h a o w h d j e ",
"j x ;.W x W W x x x M M Q z x x j h F Z a f f f h h s s w w j w C s w w e j q q q x x z z z z z z z z z m I j Z h h w h w x j x ",
"x x #.x x >.].F x x M Q W x x e h j F !.f f f h h w y y y C F F w w w j x x z q x x x x z x z z z z z z z I x F h h w w V F x x ",
"x x ;.x x W ;.F x x x M z q q x x j F Z f f f h h w f s f h h h w w h h e e q q e x x z z q z z I z z j m x h w x h f w V W W V ",
"x x ;.x j >.9.V x x z x x x x x x h F |.h f f f h d f k s w x w h h a d d e q q q e x Q Q q z x x x z z z z a a V ;.].].x W I x ",
"x x x j x W ;.Q q t z M M Q x x d j F |.Z f f f h h d w o x x j h h w d d q e d q q x Q Q z z x x x z z a [ _.j j ) ].].x W W x ",
"F h h w x W ;.M x t Q Q x x j j e e h C !.[ 8 F d d d d d d q e h w w d d e q e q q x Q Q z z W V F F x W M.u.I F |.=+m.V x x x ",
"F j h h x ]...M x q Q Q V x e j e 2 2 f C s s.Z d d d x x x x x w h d e d j x q e q x x M Q x x F F I I .._...I F I |.].V z x x ",
"j j d h x W ..V q q z V F x e 2 2 e d s s s Z C h d d e q q e j x h h d d e q q d x x Q Q Q x w V V I W W W I I F x x ..x F F r ",
"j j j h x V F x j q q x x x q h e j d T w s Z w d x x q e q x d x d d d d d e o e x x x Q M w w J V x F I I x j j h h V x 2 2 j ",
"j x j j x F V w e e d d e j x x j j o M w s f a d d d e q e q q q d d d e j e e e x M Q z M w w J T M x x x j h j h 7 V x j 0 j ",
"x F F j j x Z w e e e q d q x e e e x ;.*.T a a d d d e q q e q x e d q q e d e x x x W W M w T T V w x x x j j h h h V x j j F ",
"j j x h h F F w o q q o w x q q q x x ;.J J w h e d e q q q e e q e q z x d d q x x V W W M x T T J T w x x x h h h F V h j j j ",
"j h h h h x F w x x x q q z x q x x M c.9.J w w d d e e q x q e e e x x j d d d x w M Q Q M w x w V T w w x x F x w F V h j j j ",
"j x w h w w x x x x x q q q z x ] M o M }.J f h d d d q e j e 6 e j d d e d 2 j x o x Q Q x x M w T T s C w F x M x V V w j x x ",
"j j h f s w w x x w x x x x q x , h.d *.9.s s h d d d d o e o d 9 e e d j 2 d x M M x Q M M x x s T T P w w T V *.o 9.;.w * !.F ",
"e d x C w T J *.V F w w V ;.Q x ]._.h 9.9.w w w x d e d q d q 6 9 e e d e d j x x ] , ;.Q Q M M a s w s T T 9.;.;.k `.].x !.U.x ",
"f w M *.T h.9.9.h.9.$.T D.D.c.M ].].D.++9.*.w j j x o o q q q d e e e e e e q x M *.h._.Q 3 6 6 k a J J J J w J M }.c. .V h.|.F ",
"1 1 o M p.9.*.*.M.T w G G *.*.M ].].;.;. .J w x j e x q e o d d x e e q d e z z x W _.;.E #.#.4.9.!.*.*.T V C V ].*.;.o 1 w h d ",
"h x w w F a 8 9.h.*.] T J w x M M F V V *.* !.x x j x q q q e o q x j x q z z q q Q W Q E ;.c.4.4.*.w w w x x x M ;.4.Q x x x h ",
"j j j x r Z M.h.M.!., h.x x w w x x w w 3.!.U.F j j x x q e o x d e e x x x x z x M W Q x F.F.3 p.>.x h j F x w M *.}.Q x x j x ",
"x x x x w <.!.Z <.Z h.u.x w x x x w T w T ]...x j x x x j d x x e q e x q x x q x M M q q c.F.m.D.Q w w x x x w V 4.4.Q x x x x ",
"z z x x x !.!.*.!.C ....x x x x w w w w J !.x x x x x w d d j h x j e e j x q q x x x q q c.o.c.;.x w w x j x h x ;.;.x x x x M ",
"M x z x x V V *.T h V W x x x M w w w s w V x x x x h h h e h j j d e j x j e d x x x q q c.c.>.#.w f w w x j j F W Q z x x x x ",
"x j e j h F Z !.!.s C V x F x x x o s k w V d e j h d d d 2 j e e d q x x j e d x w o x o c.c.>.M w w w x j j j F W Q x x x x x ",
"e d d h h h w T T f C F x x x x o o w o w V q d e h h h h d e e e o d j e w h a w o o q d ;.;.;.M o s w w j j j F F x x j j j j ",
"e 2 2 2 h h w T T f C F x z z e o w w w w F q d e h h d d h j x e d d o j d w h w w w q d ;.>.>.;.w a w h d j x x F x j h h d j ",
"e d h 2 h f f G P c f x x x x e o o w d j x d d d h h h h j j j j h d j x e f a w o w x d *.Q ;.;.J o w e x x x x F h 2 h j j j ",
"q q h h f f f J T c f j x z z e e o d d q e q e d d a h 2 7 j j e d d h d h d k k w w o a *.M ;.#.V V V x x x F F x d h j j e x ",
"h h h d h f C J P < f w x z I e d q o e e d e e d 2 a 1 d 2 d e 4 2 o w d h w w s ] / V a *.;.{ c.*.F M x x x x x x j j q d x x ",
"h h d d h f s s y c l j x z z q e e d d e d d d d a 5 d 4 e 4 e 4 2 d w e h o s o J h.V a !.;.h.D.V F x V F x V x x j j d q x j ",
"d h d h h f f f v p s x x q e e 4 2 d d d e d e d a a d 7 7 e j e e d d d w s s w M *.x d *.V 9.4.V M M V V V V x x x x j x x h ",
"d d d d d a a 8 f s w x q q e q e d h j e e e d d h d 2 7 d 4 e e e d d d k w o w J V w d *.Q ;.;.*.T x V V F x x x x m x x x j ",
"2 2 d d d d a a f s s x j e e e j h h h h e e q d a a h 7 7 e d d d d a a s k o w J V q 3 V V #.;.V T x F V V x x j z z x w d d ",
"j e j j h d d a s s s w x q q q q w x x x q e j d f a d d d d h h d h w w o a o w w M o a V W M *.V J w x x x x x x z z x j j j ",
"j j j j h e h h f c s x w j q q q x h j x j x d o d f d d a a a f s w w w w o w w w M w a V x M *.J w w x F x x x x z z j j j j ",
"q x x x x o h f f c f w x x q q x w w M x x d d d h a d a a a a d a a k o o w w w w w w s V x x M J s w F W V V W x z x x x x x ",
"x x j j x j w f s c f w x x x w x M M M M x j e d d d d d d a a h a a d d o w o w J w w a !.M x M J k w x F W W W I z x w h x x ",
"x x x M x x h f v p s w x x x V F w x M M Q x j q x o h d h w h w o o w w J w J J J w s i !.W M M w w w V z I I I z z x w w x x ",
"x M Q Q M x h h s v s w w x F F w w w J V M z q t j d d d d d o d d w J *.*.M T J T J w 8 !.*.W V J J x z z Q I I z z x w w x j ",
"x x x x F V V C y P P C T F F V C s w T T z z I z z q w x x F x x x J V *.*.M T J J w T 8 !.V W M w w x z x z W W z x F C C F F ",
"j j e j x 3 [ T X P ] T C V V V V T y s w V I I W x a V x x x x z Q V ;.].].*.V T k J X 8 !.V x M V F F I W W W W W V V T C h h ",
"j d h x V ].s.Z X C , g.C V Z Z Z Z X T T V V W ].w / |.V W x V W ].].].].|.!.$.!.T X <.s !.V a a 9.V F I W W W W V V V V F x x ",
"j h h w Z |.|.Z X Z <.|.<.Z Z T Z ).<.<.<.h.|.|.s.s.s.|.Z Z Z !.].|.!.!.<.!.!.!.!.<.s.<.C !.F x Z !.F M W W ].].....].Z V W W I ",
"h C T V Z <.<.Z !.<.<.<.<.Z Z !.!.).).<.g.s.s.s.J.J.s.s.s.s.s.h.<.<.h.g.s.<.<.<.).!.!.Z T <.<.Z V Z Z Z V ].Z !.].].Z Z F V V V ",
"1 1 a f w w w a 1 1 a f a 1 a h w s s s s s f h Z T C T T T w s f f s s f f f f f a 1 [ ] ] 1 d h w w w d d a w w d d d 1 1 2 d ",
"w w a w s C C w T T w f w w s f s s k w s f f f T w f s w C w w a a w w a f a C f f f w C h w h h h C w w w h C J J w J w f f h ",
"..].W ....].c.m.5.].].].;.........Z V V F V V Z ..].;.......V F V V ..V V W ..F F F Z Z !.].].W ..W Z ].F ;.].].m.m.m.m.|...Z F ",
"1+h+e+e+h+e+v+h+0+3+e+e+e+e+e+3+3+e+3+3+3+e+e+e+e+e+3+e+6+e+e+e+h+e+h+h+h+h+e+h+e+e+e+e+e+h+e+3+e+3+3+e+e+e+e+e+3+e+e+3+3+'+^+^+"};
