/* XPM */
static char * SO2_xpm[] = {
"64 64 6 1",
" 	c #17C544",
".	c #1AAE35",
"+	c #1C9829",
"@	c #82F6AD",
"#	c #41F384",
"$	c #17DD62",
"                                                               .",
"                                                              .+",
"  @@@@@@@@@@@@@@@@@@@@@@@@@@@@@@@@@@@@@@@@@@@@@@#############$++",
"  @@@@@@@@@@@@@@@@@@@@@@@@@@@@@@@@@@@@@@@@@@##$$$$$$###$$$$## ++",
"  @@@@@@@@@@@@@@@@@@##@@@@@@@@@@######@@@#$$$$$$$$$$$$$$$$$$# ++",
"  @@@@@@@@###@@@@@@######@@@@@@##$$$$$$$$$$$$$$$$$$$$$$$$$$$# ++",
"  @@@@@#########################$$$$$$$$$$$$$$$$$$$$$$$$$$$$# ++",
"  @@@@##########################$$$$$$$$$$$$$$$$$$$$$$$$$$$$# ++",
"  @@@@##$$$$$$$$$$$$$$$$$$$$$$$$                       .   $# ++",
"  @@@@##$$$$$$$$$$$$$$$$$$$$$$$$                      ..    # ++",
"  @@@@##$$###########################################$..    # ++",
"  @@@@##$$########################################### ..    @ ++",
"  @@@@##$$##@@@@@@@@@@@@@@@@@@@@@#####$$$$$$###$$$### ..    @ ++",
"  @@@@##$$##@@@@@@@@@###@@@@@@@@#$$$$$$$$$$$$$$$$$$## ..   $@ ++",
"  @@@###$$##@@@#################$$$$$$$$$$$$$$$$$$$## ..   $@ ++",
"  @@####$$##@@##################$$$$$$$$$$$$$$$$$$$## ..   $# ++",
"  @@####$$##@@##$$$$$$$$$$$$$$$$               .   $# ..    # ++",
"  @@####$$##@@##$$$$$$$$$$$$$$$$              ..    # ..    # ++",
"  @@@###$$##@@##$$###########################$..    $ ..    $ ++",
"  @@@###$$##@@##$$##########################$ ..    $ ..    $ ++",
"  @@@###$$##@@##$$##@@@@@@@@@@@@########@@@@  ..    $ ..    $ ++",
"  @@@@##$$##@@##$$##@@##########$$$$$$$$$#@@  ..    $ ..      ++",
"  @@@@##$$##@@##$$##@###########$$$$$$$$$$#@  ..    $ ..      ++",
"  @@@@##$$##@@##$$##@###########$$$$$$$$$$$@  ..    $ ..    $ ++",
"  @@@###$$##@###$$##@###########$$$$$$$$$$$@  ..    $ ..    $ ++",
"  @@@###$$##@###$$##@###########$$$$$$$$$$$#  ..      ..    $ ++",
"  #@@###$$##@@##$$##@##########@$$$$$$$$$$$#  ..      ..      ++",
"  #@@@##$$##@@##$$##@##########@$$$$$$$$$$$#  ..      ..      ++",
"  ##@@##$$##@@##$$##@##########@$$$$$$$$$$$#  ..    $ ..    $ ++",
"  ##@@##$$##@@##$$##@##########@$$$$$$$$$$$#  ..    $ ..    $ ++",
"  ##@@##$$##@@##$$##@#########@@$$$$$$$$$$$#  ..    $ ..   $$ ++",
"  ##@###$$##@@##$$##@#####@@@@@@$$$$$$$$$$$#  ..      ..   $$ ++",
"  #####$  ##@#$$  ###$$$$$$$$$$$     ...   $  ..      ..   $$ ++",
"  #####$  ###$$$  ###$$$$$$$$$$$  ......   $  ..    $ ..    $ ++",
"  ####$$  ###$$$  ###$$$$$$$$$$$ .......      ..    $ ..    $ ++",
"  ####$$  ###$$$  ###$$$$$$$$$$$ .......      ..    $ ..    $ ++",
"  ##@#$$  ###$$$  ###$$$$$$$$$$$ .......      ..    $ ..      ++",
"  ##@##$  ###$$$  ###$$$$$$$$$$$........      ..    $ ..      ++",
"  ##@@#$  ##$$$$  ###$$$$$$$$$$$........   $  ..    $ ..      ++",
"  $#@@#$  ##$$$$  ###$$$$$$$$$$$........   $  ..    $ ..      ++",
"  $$#@$$  ##$$$$  ##@$$$$$$$$$$$           $  ..    $ ..    $ ++",
"  $$##$$  ##$$$$  ##@#$$$$$$$$$$           $  ..    # ..    $ ++",
"  $$$#$$  ##$$$$  ##@@#$$$$$$$$$          $$  ..    # ..    $ ++",
"  $$$#$$  ##$$$$  ##@@@@@##$$$$$$   $$$$$$$$  ..    # ..    $ ++",
"  $$$#$$  ##$$$$  #$                          ..    # ..    $ ++",
"  $$$$$$  ###$$$  $                           ..    # ..    $ ++",
"  $$$$$$  ###$$$ ...............................    # ..    $ ++",
"  $$$#$$  ###$$$................................    # ..    $$++",
"  $$$#$$  ###$$$                                   $# ..    $$++",
"  $$$#$$  ##$$$$                                   $# ..    #$++",
"  $$$$$$  ##$$$$                                  $## ..    #$++",
"  $$$$$$  ###@@#$                         $$$   $$### ..    #$++",
"  $$$$$$  ##@@@@##$$$      $$$$    $$$$$$###########$ ..    #$++",
"  $$$$$$  $                                           ..    #$++",
"  $$$$$$ ...............................................    #$++",
"  $$$$$$................................................   $#$++",
"  $$$$$$                                                   $#$++",
"  $$$$$                                                    #@$++",
"  $$$$                                                    $#@$++",
"  $$$        $$$             $$$$                 $$$  $$##@@$++",
"  $$    $$$$$$$$$$$   $$$  $$$$$$$$$     $$$$$$$$########@@@@$++",
"  $                                            $$$$$$$$$$$$$$ ++",
" .++++++++++++++++++++++++++++++++++++++++++++++++++++++++++++.+",
".++++++++++++++++++++++++++++++++++++++++++++++++++++++++++++++."};
