/* XPM */
static char * CubEast2_xpm[] = {
"64 64 256 2",
"  	c #EEEED8",
". 	c #E8E5CE",
"+ 	c #DEE7CE",
"@ 	c #DDE5D6",
"# 	c #DEDECE",
"$ 	c #D6DECE",
"% 	c #D8DEC6",
"& 	c #DED6C6",
"* 	c #D7D6CE",
"= 	c #D6D6C6",
"- 	c #D6D6BD",
"; 	c #CED6BD",
"> 	c #CED6B5",
", 	c #D6CEC6",
"' 	c #D6D0B5",
") 	c #D6CEBD",
"! 	c #CECFC7",
"~ 	c #CECEBD",
"{ 	c #CECEB5",
"] 	c #CECEAD",
"^ 	c #C6CEBD",
"/ 	c #C6CEB5",
"( 	c #D6C6AD",
"_ 	c #C6CEAD",
": 	c #CEC6BD",
"< 	c #CEC6B5",
"[ 	c #CEC6AD",
"} 	c #C6C6BD",
"| 	c #C6C6B5",
"1 	c #C6C6AD",
"2 	c #C7C6A5",
"3 	c #BDC6AD",
"4 	c #CEBDAD",
"5 	c #BDC6A5",
"6 	c #ACA6A0",
"7 	c #C6BDB5",
"8 	c #C6BDAD",
"9 	c #BDC0B5",
"0 	c #C6BDA5",
"a 	c #BDBDAD",
"b 	c #BDBDA5",
"c 	c #BDBD9C",
"d 	c #B5BDAD",
"e 	c #C6B5A5",
"f 	c #B5BDA5",
"g 	c #BDB5A5",
"h 	c #BDB59C",
"i 	c #9FA79A",
"j 	c #B5B5AD",
"k 	c #B5B5A5",
"l 	c #BAB594",
"m 	c #B5B59C",
"n 	c #BDAD9C",
"o 	c #ACB59C",
"p 	c #ADB594",
"q 	c #B5ADA5",
"r 	c #DEA94A",
"s 	c #ACB1A5",
"t 	c #D6AD42",
"u 	c #B5AD9C",
"v 	c #DEA940",
"w 	c #B5AD94",
"x 	c #B5AD8C",
"y 	c #ADAD9C",
"z 	c #ADAD94",
"A 	c #D4A54A",
"B 	c #D6A542",
"C 	c #A5AD9C",
"D 	c #A9AD8C",
"E 	c #B5A594",
"F 	c #A5AD94",
"G 	c #D4A539",
"H 	c #CEA542",
"I 	c #ADA594",
"J 	c #9CAD94",
"K 	c #A9A984",
"L 	c #A7A59C",
"M 	c #AEA48C",
"N 	c #D69C42",
"O 	c #A5A594",
"P 	c #D69C39",
"Q 	c #A5A58C",
"R 	c #CE9C42",
"S 	c #9CA594",
"T 	c #CA9B4A",
"U 	c #CE9C39",
"V 	c #9CA58C",
"W 	c #C69C42",
"X 	c #CC9C31",
"Y 	c #A59C94",
"Z 	c #C69C39",
"` 	c #94A58C",
" .	c #A59C8C",
"..	c #94A584",
"+.	c #A59C84",
"@.	c #CE9439",
"#.	c #9C9C94",
"$.	c #C79442",
"%.	c #9C9C8C",
"&.	c #9C9C84",
"*.	c #C69439",
"=.	c #949C8C",
"-.	c #C89231",
";.	c #999C7B",
">.	c #949C84",
",.	c #BD9439",
"'.	c #9C948C",
").	c #9C9484",
"!.	c #8C9C84",
"~.	c #9F947B",
"{.	c #C68C39",
"].	c #949494",
"^.	c #94948C",
"/.	c #B88F42",
"(.	c #949484",
"_.	c #AB9056",
":.	c #BC8C39",
"<.	c #94947B",
"[.	c #BC8D30",
"}.	c #8C9484",
"|.	c #8C947B",
"1.	c #8C9473",
"2.	c #948C84",
"3.	c #908C8C",
"4.	c #948C7B",
"5.	c #84947B",
"6.	c #BD8429",
"7.	c #8B8C84",
"8.	c #8C8C7B",
"9.	c #8C8C73",
"0.	c #B58429",
"a.	c #B58421",
"b.	c #848C7B",
"c.	c #AF8235",
"d.	c #848C73",
"e.	c #848C67",
"f.	c #8D8477",
"g.	c #7B8C7B",
"h.	c #B57B29",
"i.	c #84847B",
"j.	c #848473",
"k.	c #AD7D28",
"l.	c #9E7E3D",
"m.	c #7B8473",
"n.	c #7B846B",
"o.	c #867E6B",
"p.	c #847B73",
"q.	c #7B7E7B",
"r.	c #9F7931",
"s.	c #877C62",
"t.	c #7B7B73",
"u.	c #7B7B6B",
"v.	c #7B7B63",
"w.	c #737B6B",
"x.	c #737B63",
"y.	c #737873",
"z.	c #7B736B",
"A.	c #7C7260",
"B.	c #73736B",
"C.	c #737363",
"D.	c #73735A",
"E.	c #6B736B",
"F.	c #6B7363",
"G.	c #966922",
"H.	c #736B63",
"I.	c #736B5A",
"J.	c #7C6A42",
"K.	c #6B6B6B",
"L.	c #6B6B63",
"M.	c #6B6B5A",
"N.	c #896521",
"O.	c #636B63",
"P.	c #8C6318",
"Q.	c #636B5A",
"R.	c #816229",
"S.	c #6B635B",
"T.	c #666451",
"U.	c #63635A",
"V.	c #895A18",
"W.	c #5A635A",
"X.	c #5A6352",
"Y.	c #795821",
"Z.	c #635A52",
"`.	c #655A4A",
" +	c #5A5A52",
".+	c #5A5A4A",
"++	c #7D5118",
"@+	c #735218",
"#+	c #5A525A",
"$+	c #5B524B",
"%+	c #665327",
"&+	c #6B5218",
"*+	c #5D523C",
"=+	c #51534B",
"-+	c #6B4A18",
";+	c #4A5242",
">+	c #524D40",
",+	c #624A17",
"'+	c #4E4A4B",
")+	c #5E4923",
"!+	c #4A4A42",
"~+	c #494B39",
"{+	c #424A42",
"]+	c #4B4041",
"^+	c #4F4224",
"/+	c #613C12",
"(+	c #424242",
"_+	c #514217",
":+	c #474131",
"<+	c #424239",
"[+	c #394239",
"}+	c #394231",
"|+	c #523918",
"1+	c #403942",
"2+	c #4A3918",
"3+	c #3E3739",
"4+	c #4C370E",
"5+	c #423A18",
"6+	c #393931",
"7+	c #413625",
"8+	c #313931",
"9+	c #313929",
"0+	c #393131",
"a+	c #40310C",
"b+	c #3B3118",
"c+	c #313131",
"d+	c #313129",
"e+	c #313118",
"f+	c #402918",
"g+	c #2C3121",
"h+	c #293129",
"i+	c #332829",
"j+	c #312918",
"k+	c #292929",
"l+	c #292921",
"m+	c #34270C",
"n+	c #212921",
"o+	c #292618",
"p+	c #292121",
"q+	c #212121",
"r+	c #291F0B",
"s+	c #202118",
"t+	c #211818",
"u+	c #21190D",
"v+	c #181818",
"w+	c #181810",
"x+	c #181908",
"y+	c #181010",
"z+	c #180F05",
"A+	c #101010",
"B+	c #101008",
"C+	c #100808",
"D+	c #0E0900",
"E+	c #080808",
"F+	c #080000",
"G+	c #000000",
"%.>.>.%.O O C L Y Y L O y O &.}.|.(.(.(.(.%.%.#.S i %.&.&.).&.(.%.Y L z o %.7.b.4.(.(.(.(.%.%.#.S i %.&.&.).&.(.V }.%.O O o F %.",
"%.^.^.=.O i s 6 L O L L L %.%.%.^.^.=.=.%.#.S S #.L i #.#.L S #.L O L L L %.%.%.^.=.=.=.%.#.S S #.L i #.#.L S %.%.^.#.O L L O %.",
"T.T.U.U.U.L.L.U.U.U.L.B.C.M.T.U.U.Q.U.L.S.L.U. +U.L.L.M.F.L.Q.U.U.U.L.B.C.M.T.U.U.Q.U.L.S.L.U. +U.L.L.M.F.L.Q.U.U.U.U.Q.L.C.I.M.",
"<.(.%.(.(.%.>.(.(.=.%.=.%.%.(.<.).%.'.(.8.(.(.}.|.=.>.|.(.(.(.(.(.=.%.=.%.%.(.<.).%.'.(.8.(.(.}.|.=.>.|.(.(.(.(.(.>.(.=.=.%.V %.",
">.).O %.=.=.%.(.(.}.%.&.V O %.(. .O %.>.%.%.#.%.(.>.(.V %.%.%.'.(.}.%.&.V O %.(. .O %.>.%.%.#.%.(.>.(.V %.%.%.'.%.(.(.=.%.=.S V ",
">.(.&.'.&.}.8.(.b.9.j.|.).).>.(.(.%.<.7.(.%.#.O &.|.8.^.#.#.%.(.b.9.j.|.).).>.(.(.%.<.7.(.%.#.O &.|.8.^.#.#.%.^.(.(.(.|.d.(.(.).",
"8.}.>.).%.(.i.i.8.8.b.7.|.|.b.}.>.).8.4.4.%. .%.&.8.8.&.(.=.}.(.8.8.b.7.|.|.b.}.>.).8.4.4.%. .%.&.8.8.&.(.=.}.(.(.>.%.(.b.8.}.b.",
"~ ! ~ } | ~ ~ } ~ | 9 9 9 ~ ; ~ ! } | - ~ ) = = % % # # & % = % ~ | 9 9 9 ~ ; ~ ! } | - ~ ) = = % % # # & % = % ~ ~ ! ^ 9 9 | ~ ",
"C.C.C.C.C.C.C.w.B.C.L.L.L.C.C.C.C.C.u.u.u.j.i.m.m.o.u.j.j.u.u.u.B.C.L.L.L.C.C.C.C.C.u.u.u.j.i.m.m.o.u.j.j.u.u.u.C.C.C.F.L.L.F.C.",
"U.S.S.S.U.U.U.M.U.U.T.U.S.S.S.S.S.S.M.M.U.U.U.S.S.L.S.S.S.S.U.U.T.L.L.U.U.S.S.S.S.U.U.U.U.S.S.M.U.S.L.L.L.L.S.S.L.S.S.U.U.U.U.X.",
"m m u u u y y u u z Q O z z y u y u y z y u y y u m y y y y y z y m m u z u u y u y u y y u m u u m m m m m u u m m u y y Q  .z ",
"{ { < < 8 b 8 1 < 8 b 2 1 1 1 1 | < 1 1 1 8 | | < < 1 8 1 | | 1 | < { < | | < 1 | < < 1 1 | | < < < < { { < 1 < < | | | | h a 1 ",
"{ { { { 1 b | { { < 8 < < | < < | 1 1 < 1 1 1 1 < [ 1 1 | [ | < | { { { | < { | < { < 1 | < | < | 8 < { { { | < { { { < 1 8 1 { ",
"{ { < < 1 1 { { < 1 h | | 1 < | < 1 1 1 | 1 1 1 | < 1 1 | < < | 1 < < { < < { < < { < 1 1 | < < a m < { { { | < { < { 1 1 1 1 { ",
"{ { < < 1 1 | { { 8 1 < < < 1 { < [ 1 < < 1 < < | < 1 | | | | 1 | < 1 < { < { { | < < < { { < | 1 1 8 { { | < { < { { { | 1 1 < ",
"{ { { { { 1 < { { 1 { { < < 1 1 1 < < | | < { < | | 1 1 | 1 < | | 1 1 | < { < < { < | < { { { | 1 | < | < 1 8 < { { { < 1 1 8 | ",
"{ { { { { < { { | | { { { < 1 < | < < < < 1 { { | 1 8 1 | 1 < | < 1 1 | 1 1 { | 1 | | < < { < 1 | { { < < | g 1 < { { { | 1 1 | ",
"{ { { { < < < { | | { { < < { < < { { { { 1 { < 1 b 8 | < | | | | 8 1 1 1 | { < 1 1 < < < < < 8 1 { { { { { 1 1 1 1 < { 1 < 1 1 ",
"8 < < | < | < { < | < < 1 1 < { | < < < { { { { 1 b 8 < { < | | | 8 1 1 1 < < { < 1 < | < { { 1 1 < { < < { { < | 1 { < { { { 8 ",
"1 { { 1 { { < { { { { < 1 1 { { 1 8 1 < 1 { { < 1 1 | < { < { < | a 1 { < { { { { { { { { { { 1 g | < < < { { { { < < 1 8 1 | b ",
"| { { < < 1 1 < < { < < 1 1 { | 1 1 8 1 8 { { { < 1 1 | | { { | 8 a | < { { { { { | 8 | < { < a y a { { { { { { { < { 1 1 b b 1 ",
"< { | 1 | 1 | { < { { < 1 1 { < 1 8 a 8 b { { { { < | 1 < ~ ~ { / 1 { < < { { { { 1 b 8 1 | | | | | { { { | | { { { { < 0 c g 1 ",
"< < 1 1 0 [ < | { { { | 1 | < 1 1 1 8 8 < { { { { { { [ < - = ; { | < | < { < { < b a 1 < < < | 1 | < { { | 1 < { 1 1 < 0 l b 8 ",
"1 < 1 0 1 1 { < { { < < | 1 | b a 1 1 1 < { { { { ~ < 0 < ~ - - { | 1 1 < { < < < b 8 { { { { < | < < { [ 2 0 < < 1 8 1 0 h 8 < ",
"| < [ [ { { { { { { { { | 1 1 b a a 8 1 < { { { { ) ' { { { { { < | 1 1 < < { { < b 1 { | { { < { < { 1 8 0 1 8 1 1 1 1 1 c b b ",
"w | { [ [ < { < { { | < { | a m b 1 | 1 { { { { { { < 1 < < b Q I 8 8 1 1 1 1 < < | < { 1 { < < { { { 1 h c 8 c b 1 1 < [ 1 8 Q ",
"h 1 | | 1 < { < | | 1 | < | 8 g a | { { { { { { < < 1 b 8 1 *+b+*+I.< 1 { | [ < < < < 1 0 { < | { | | 1 b b b 0 b 1 { < { 8 k u ",
"8 1 | < < < < < | 1 8 | | < | b 8 { | < { { { { { < a g | | :+7+b+*+~ | < < < < | < { g b < { | < | 1 a a 8 1 1 8 1 < < 1 8 a u ",
"u g h m g b b b g m z m h b g g b b b b b b b b b b b m u m d+r+z+^+<.h b b b h g h g m w g b g g g m m z k h h g b b g g m z  .",
"++++++++++++++++++++++++++++++++++++++V.++++++++++++++++++++/+a+r+m+)+/+++V.++++++++++++++++++++V.++++++++++++++++++++++++++++++",
"c.0.0.[.[.[.[.[.[.[.[.[.:.c.:.,.*.*.*.*.,.*.,.,.,.[.:.[.:.{.c.&+)+r+I.Y.k.:.:.:.:.:.:.:.:.[.:.:.:.,.:.:.:.:.:.:.c.c.:.:.,.{.:.c.",
"-.*.*.Z U U U U U U U U R $.B B B B B B B B A H B B B R R H T G.*+6+f.J.c.B B T T /.R R N W T T A A B R R N B /./.W H A B A T W ",
"k.0.0.0.0.0.0.0.0.0.0.c.r.c.[.{.-.[.*.*.*.,.:.[.:.:.c.c.c.c.r._+r+u+*+^+r.c.c.r.l.l.[.[.c.r.l.l.l.c.c.l.l.r.c.r.r.c.:.:.*.,.c.c.",
",+,+,+,+-+-+,+,+-+&+&+)+)+,+^+&+&+&+&+&+&+%+%+&+%+&+,+)+)+)+2+z+D+z+j+b+2+^+^+)+,+)+,+)+)+)+)+^+^+)+)+)+^+2+_+|+^+^+)+%+&+&+)+)+",
"o+o+o+o+o+o+o+r+r+r+s+s+s+s+s+s+r+s+o+s+s+o+o+o+o+o+o+s+s+s+z+C+F+u+u+s+s+s+s+s+s+s+s+o+s+s+s+s+w+s+s+s+s+s+s+w+t+w+t+s+s+o+s+s+",
"A+A+A+A+y+A+A+A+A+A+A+A+A+A+A+A+A+A+A+A+A+A+A+A+A+A+A+A+A+A+z+B+B+w+A+A+A+A+A+A+A+A+A+A+A+A+A+A+A+A+A+A+A+A+A+A+A+A+A+A+A+A+A+A+",
"!+!+!+!+=+'+!+>+=+;+!+>+>+>+!+!+;+>+=+>+!+>+!+!+!+=+!+!+!+!+u+D+w+s+!+!+!+<+!+!+!+!+!+!+!+!+!+!+!+!+!+!+!+!+!+!+!+!+!+!+!+!+!+!+",
"O O O O z z z O I Y y y y y y y y y y Q  .y O O O I O O y y O 2.j.).O F %.O  .I I O Q O z y y y y L O %.%.O y Q O I y y I I  . .",
"| 1 < 1 b 1 1 1 | 8 1 < < { < { < < < b b 1 b h b 1 1 1 < { { | 1 1 1 | g g b 8 8 b a 1 < < { { { < 1 1 1 1 1 1 8 < { < | 1 8 a ",
"< | | 8 g { < < < 1 1 1 | < < { { 1 b b b b 8 a 1 1 1 1 { { { 1 h b 1 1 b 8 8 8 b 1 1 | | < { { { < | 1 1 b 8 < < 1 < { < 1 9 | ",
"{ | | | 1 | { { { < 1 | | | | < { 1 8 | | 1 1 1 | 1 1 < { { { | a a 1 | 8 | | 1 1 | | 1 1 { { { { { { { { { { { { | { { { < 1 | ",
" .O O %. .%. . .%.%.Q  .Y Q Q Q  .%.%.%.%.%.%.%.%.%.%.%.O O %.%.%.%.%.%.%.#.%.%.O Y %.%.V O O O O O O O O O O O O O O O O Q %.%.",
"!+!+!+;+!+>+!+!+!+!+!+!+!+!+!+!+!+!+!+!+!+!+!+!+!+!+!+!+!+!+!+!+6+!+!+!+!+!+!+!+!+!+!+!+!+!+!+!+!+!+!+!+!+!+!+!+!+!+!+!+!+!+!+!+",
"y y y z y y z I y y y y y u y y y y z z I z y m m m k k y u k y Z.I m u m O y k k k u y y y u u y y z z O O y y y u u u u y y y ",
"{ < 1 b a 1 8 1 | | | 1 1 < { < < | 1 1 8 1 1 < { ~ 3 I a ) { < j.1 ~ ~ | m m { ~ { { 1 | < { { 1 1 1 1 1 1 1 [ { | { | < | 1 < ",
"{ < 1 a a 8 1 1 | | < 1 8 { { < < < 1 < 1 8 1 < { ~ 8.j.m ~ ~ < n.1 ~ ~ f u.b.~ { { 1 8 1 < { { { { { { { < < { < | 1 1 1 | < < ",
"{ < 1 b | 1 b 1 | 1 b a b < | 1 1 < | { < < 1 | < / m %.b < ~ 8 T.a = { 1 g { { { < 1 1 < { { { { { < a { { | < < | 1 1 1 | | | ",
"{ < | a b h l 8 1 8 | | 1 1 8 1 1 < < { < | 1 1 1 a | 1 8 { - | *+a - ~ ~ ~ { < { 1 b 8 1 < < { { { < | { { < { { 1 8 1 [ 1 | 1 ",
"{ < 1 8 8 b h b a h 1 1 1 1 8 1 1 | | < < | 1 1 1 | { [ [ { = / `.b { ~ { < < ~ { 1 c 0 { { 8 1 1 < 1 1 < { { { | 1 < { < { < | ",
"< 1 1 0 8 1 1 1 1 b 1 1 8 1 < 1 1 | 1 1 | 1 1 1 1 8 1 1 1 | ~ < I.b / { { { [ < { 1 b 1 1 { { { | < < | | | { | < < < 8 1 { < 1 ",
"1 1 b 1 1 1 8 1 1 1 8 1 8 1 | | | 1 0 b 1 | 1 1 1 1 { 1 1 < { | I.8 ~ { < < { { | 8 1 1 1 1 | [ < | 1 < | b | | 1 1 [ < | | 1 1 ",
"8 8 0 1 1 b b h 8 8 b 1 8 8 1 | 1 8 1 1 | < 1 1 | / { 1 1 < { 1 S.8 ) ) { 4 { < | 8 < < { { { 1 8 | < | 1 a a 8 8 1 < { < 1 b b ",
"| 1 b a b m m g | < 1 | | 8 8 1 8 8 8 1 1 1 1 1 1 1 1 1 1 { { 1 .+0 - ~ { 8 | { / | < { { | 1 { { { < < 1 8 8 b 1 | { < 1 8 1 1 ",
"| 1 b 8 1 8 b 1 < { < { < 1 1 1 1 1 | 1 1 1 8 1 1 < ~ { 1 1 < g *+b - ) ~ 1 b | 1 8 1 1 1 1 0 1 { { | | | 8 a | < { { { 1 a 1 8 ",
"| | 1 < < 1 1 1 < { { { { < < 1 0 1 { < < 1 8 1 1 < | b { { < Q .+1 - - = } | 1 1 8 b 1 < | 1 1 { < a b 8 | 1 1 { { { { | 1 a 8 ",
"| 1 | { { < 1 { { { { { { < < < 8 | { < { < 8 0 1 8 8.8.k < [ w .+[ { { k 7.(.1 1 a 8 [ { { < { < < 8 b a 8 1 1 { { { < | 1 8 1 ",
"< { { { { | 8 8 < { < | < | < | 8 1 | 1 1 < 1 8 8 8 Q j.h 1 < h =+1 ) { a z.4.8 | 8 1 1 { { { { { < b g < { < < < < | < { | 1 1 ",
"1 < | | | 8 b 1 | 8 | 1 8 b 1 1 1 | | 1 | | 1 b M I I I u z u D I.u m h u I I I b 1 | 8 | < < | < | 8 0 1 < < < | | 1 | | 1 8 8 ",
"a 1 8 8 1 8 a b b 8 g b m g a 1 a a 1 8 8 1 1 m m 4.4.4.4.4.4.4.4.2.4.4.2.2.(.%.m 1 [ 1 8 8 a k 1 1 8 8 a 1 8 1 1 1 a 1 8 1 8 b ",
"k a b b b b m k b b k y z m b a b b b a b a a m  .6+C+y+t+C+t+y+t+C+y+y+t+y+C+0+).b 0 b b b b g a a a a a b a a a k u k b g b u ",
"O m m y y z z y L z z y y y y y y y y y y y y  .).i+t+D+c+C+q+D+p+C+p+C+q+D+t+p+8.m m y y u y u m m m m m y y k m y z I z z y %.",
"b 1 a k k a b a | a a 9 | a d k y k | | a k g y v.i+i+p+3+p+3+k+0+q+0+p+0+p+0+s+j.d a f b g f f 9 a a d f s j | 1 a b b b 1 a a ",
"m.m.j.u.C.u.u.j.m.t.t.t.j.t.q.t.B.m.i.m.u.t.t.B.`.p+p+t+i+y+i+y+t+y+i+t+p+y+0+w+T.i.j.n.v.C.B.C.j.t.B.B.C.C.x.j.t.u.C.L.v.A.u.b.",
"<+6+6+6+6+d+3+'+!+6+c+d+d+3+'+!+8+6+6+6+<+!+!+6+>+T.S.S.H.I.I.I.I.S.S.S.T.S.S.>+>+=+=+<+6+6+6+<+=+!+0+d+d+d+[+!+!+6+6+[+<+3+!+=+"};
